<svg width="236" height="61" viewBox="0 0 236 61" fill="none" xmlns="http://www.w3.org/2000/svg">
<path d="M34.2559 32.4273L23.0631 28.564L21.1694 36.5234L25.1569 37.2526C25.1877 37.113 25.2955 37.1285 25.4033 37.1595C25.4033 37.1906 25.4033 37.2216 25.4033 37.2371C25.3263 37.2371 25.2493 37.2371 25.1877 37.2526L28.5594 37.8732L29.3446 41.7986C29.3446 41.7986 29.3754 41.69 29.437 41.6745C29.5755 41.6435 29.5755 41.7831 29.6063 41.8762C29.6063 41.9228 29.6063 41.9538 29.6063 42.0003H29.5447H29.4832C29.4832 42.0003 29.4216 41.9383 29.3908 41.9072L29.8988 44.4208L29.3908 44.5604C29.3908 44.5604 29.4524 44.5604 29.4832 44.5604C29.4832 44.6069 29.4832 44.638 29.4832 44.6845C29.4062 44.6845 29.3138 44.6845 29.2368 44.6845C29.2368 44.6535 29.2368 44.638 29.2368 44.6069L16.3198 48.2841C16.3198 48.2841 16.4275 48.2841 16.4737 48.2841C16.4737 48.3306 16.4737 48.3772 16.4737 48.4082C16.3813 48.4082 16.289 48.4082 16.2428 48.2996L14.1028 48.9047L19.4913 55.747C19.4913 55.747 19.4913 55.6384 19.4913 55.5763C19.5375 55.6229 19.5837 55.6539 19.6298 55.7005C19.6298 55.747 19.6298 55.778 19.6298 55.8246C19.6145 55.8246 19.5837 55.8246 19.5683 55.8246L20.0609 56.4607C20.0609 56.4607 20.1071 56.4607 20.1225 56.4607C20.1225 56.4607 20.1225 56.5228 20.1225 56.5538L22.9092 60.0913L38.7668 45.8792L34.2712 32.3963L34.2559 32.4273ZM22.7398 33.6686C22.7398 33.6686 22.6628 33.6686 22.6166 33.6686C22.6166 33.591 22.6628 33.5599 22.7398 33.5444C22.7398 33.591 22.7398 33.622 22.7398 33.6686ZM22.9861 31.4809C22.863 31.3878 22.8322 31.3102 22.9861 31.2326C22.9861 31.3102 22.9861 31.4033 22.9861 31.4809ZM25.2801 29.9448H25.3417H25.4033C25.4033 30.0224 25.3725 30.1 25.3571 30.1776H25.3263H25.2955C25.2955 30.1 25.2955 30.0224 25.2955 29.9448H25.2801ZM23.7559 36.0734C23.7559 36.0734 23.6789 36.0734 23.6328 36.089C23.6328 36.089 23.6328 36.0114 23.6482 35.9648C23.6635 35.9028 23.7097 35.8717 23.7867 35.8873C23.8021 35.8873 23.8175 35.9183 23.8329 35.9338C23.8329 35.9959 23.8175 36.0424 23.7559 36.0734ZM23.8791 31.2171C23.7713 31.1706 23.7559 31.0775 23.7559 30.9689C23.8021 30.9689 23.8329 30.9689 23.8791 30.9689C23.8791 31.0464 23.8791 31.1395 23.8791 31.2171ZM24.3256 33.3738C24.3256 33.3738 24.2948 33.3117 24.264 33.2807C24.3102 33.2807 24.341 33.2807 24.3872 33.2807C24.3718 33.3117 24.341 33.3427 24.3256 33.3738ZM24.8952 37.144C24.8952 37.144 24.8182 37.1285 24.772 37.1285C24.772 37.0509 24.772 36.9578 24.772 36.8802C24.8182 36.8802 24.8644 36.8802 24.9106 36.8802C24.9568 36.9268 24.9876 36.9733 25.0338 37.0199C24.9876 37.0664 24.9568 37.113 24.9106 37.1595L24.8952 37.144ZM25.5264 34.4288C25.5264 34.4288 25.4495 34.5219 25.4033 34.5684C25.2955 34.5684 25.2031 34.5374 25.1415 34.4288C25.1415 34.3823 25.1415 34.3512 25.1415 34.3047C25.2801 34.2892 25.3879 34.3823 25.511 34.4288H25.5264ZM25.8959 36.089C25.8959 36.089 25.8344 36.0424 25.8036 36.0269C25.8344 36.0114 25.8651 35.9959 25.8959 35.9804C25.8959 36.0114 25.8959 36.0579 25.8959 36.089ZM27.0352 35.9648C26.9582 35.9648 26.8659 35.9648 26.7889 35.9648C26.8197 35.7942 26.9275 35.8407 27.0352 35.8562C27.0352 35.8873 27.0352 35.9183 27.0352 35.9648ZM27.4201 33.6996C27.4201 33.6996 27.3585 33.653 27.3277 33.653C27.3277 33.5755 27.3277 33.4979 27.3124 33.4203C27.4047 33.4203 27.5279 33.3738 27.5587 33.5289C27.5895 33.6375 27.5125 33.6686 27.4201 33.6996ZM28.698 32.2411C28.698 32.1636 28.698 32.086 28.698 31.9929C28.8673 32.0705 28.8673 32.148 28.698 32.2411ZM28.8211 37.113C28.7442 37.113 28.6518 37.113 28.5748 37.0975C28.5748 37.0664 28.5748 37.0354 28.5748 36.9889C28.6518 36.9889 28.7442 36.9889 28.8211 36.9889C28.8211 37.0354 28.8211 37.0819 28.8211 37.113ZM29.0675 37.7336C29.0675 37.7336 28.8673 37.7646 28.8673 37.6871C28.8673 37.6095 28.9905 37.6405 29.0675 37.656C29.0675 37.6871 29.0675 37.7181 29.0675 37.7336ZM28.8211 34.8167C28.8981 34.6615 28.9905 34.6771 29.0675 34.8167C28.9905 34.8167 28.8981 34.8167 28.8211 34.8167ZM29.1291 35.5304C29.1291 35.5304 29.1291 35.3753 29.1906 35.3287C29.2368 35.3753 29.283 35.4218 29.3292 35.4683C29.283 35.5459 29.206 35.608 29.1291 35.5304ZM16.7047 49.9287C16.7047 49.9287 16.7047 49.8667 16.7047 49.8201C16.797 49.8201 16.9048 49.8201 16.951 49.9442C16.874 49.9442 16.7816 49.9442 16.7047 49.9442V49.9287ZM16.951 49.1685C16.874 49.1685 16.7816 49.1685 16.7047 49.184C16.7047 49.1064 16.7047 49.0288 16.7047 48.9513C16.7816 48.9513 16.8586 48.9513 16.951 48.9513C16.951 48.9823 16.951 49.0288 16.9664 49.0599C16.9664 49.0909 16.9664 49.1374 16.9664 49.184L16.951 49.1685ZM17.5822 52.5043C17.5052 52.5043 17.4129 52.5043 17.3359 52.5043C17.3359 52.4577 17.3359 52.4112 17.3359 52.3802C17.4129 52.3802 17.5052 52.3802 17.5822 52.3802C17.5822 52.4267 17.5822 52.4577 17.5822 52.5043ZM19.2296 48.5323C19.1372 48.5323 19.1064 48.4858 19.1064 48.4082C19.1526 48.4082 19.1988 48.4082 19.2296 48.4082C19.2296 48.4548 19.2296 48.5013 19.2296 48.5479C19.2296 48.5013 19.2296 48.4548 19.2296 48.4082C19.2296 48.3772 19.2296 48.3306 19.2296 48.2996C19.1834 48.2996 19.1526 48.2996 19.1064 48.2996C19.0602 48.2996 19.014 48.2996 18.9832 48.2996C18.9832 48.2531 18.9832 48.222 18.9832 48.1755C19.0294 48.1755 19.0602 48.1755 19.091 48.1445C19.1218 48.1445 19.168 48.1445 19.1988 48.1445C19.2296 48.1445 19.245 48.1445 19.2757 48.1445C19.2604 48.191 19.245 48.222 19.2296 48.2686C19.2296 48.2686 19.3065 48.2686 19.3527 48.2531C19.3989 48.2531 19.4451 48.2531 19.4913 48.2686C19.4913 48.3462 19.4913 48.4237 19.4913 48.5168V48.5634C19.4913 48.5634 19.4143 48.5634 19.3681 48.5479C19.3219 48.5479 19.2911 48.5323 19.245 48.5323H19.2296ZM19.5991 51.2165H19.5375H19.4759C19.4759 51.1234 19.4759 51.0458 19.4759 50.9683C19.4759 50.9683 19.5683 50.9683 19.5991 50.9683C19.5991 51.0614 19.5991 51.1389 19.5991 51.2165ZM35.2258 40.0919C35.2258 40.0919 35.2566 40.154 35.272 40.185C35.2412 40.185 35.195 40.185 35.1642 40.185C35.1642 40.1385 35.1642 40.0764 35.2412 40.0919H35.2258ZM34.5176 34.2892C34.5176 34.3823 34.5176 34.4598 34.5176 34.5374C34.4714 34.5374 34.4406 34.5374 34.3944 34.5374C34.3944 34.4598 34.3944 34.3667 34.3944 34.2892C34.4406 34.2892 34.4868 34.2892 34.5176 34.2892ZM31.8079 43.676C31.8079 43.676 31.8387 43.7536 31.8541 43.7846H31.7925H31.7309C31.7463 43.7536 31.7771 43.7226 31.7925 43.6915L31.8079 43.676ZM30.7302 31.7446C30.7302 31.7446 30.7302 31.8222 30.7302 31.8532C30.684 31.8532 30.6224 31.8532 30.6378 31.7757C30.6378 31.7602 30.6994 31.7446 30.7302 31.7446ZM29.8834 40.7746C29.8834 40.7746 29.945 40.7281 29.9758 40.7126C29.9758 40.7591 29.9758 40.7901 29.9758 40.8367C29.945 40.8212 29.9142 40.7901 29.8834 40.7746ZM29.3446 48.4082C29.4986 48.4392 29.4832 48.5479 29.4524 48.6565C29.4216 48.6565 29.3754 48.6565 29.3446 48.6565C29.3446 48.5789 29.3446 48.4858 29.3446 48.4082ZM28.467 47.6324C28.5132 47.5238 28.6056 47.5083 28.7134 47.5083C28.7134 47.5549 28.7134 47.6014 28.7134 47.648C28.6364 47.648 28.544 47.648 28.467 47.648V47.6324ZM28.467 48.9202C28.467 48.9202 28.5748 48.8737 28.5748 48.8116C28.6518 48.8582 28.7442 48.9047 28.8211 48.9513C28.8211 48.9513 28.8211 49.0288 28.8211 49.0599C28.698 49.0909 28.5748 49.1064 28.4516 49.0599C28.4516 49.0133 28.4516 48.9668 28.4516 48.9202H28.467ZM28.5748 49.4322C28.5748 49.4322 28.4978 49.4322 28.4516 49.4322C28.4516 49.3547 28.4516 49.2616 28.4516 49.184C28.6056 49.215 28.5748 49.3236 28.5748 49.4322ZM26.8043 47.7721C26.8043 47.6945 26.8043 47.6014 26.8351 47.5238C26.8351 47.4928 26.8813 47.4618 26.9121 47.4463C26.989 47.4152 27.0198 47.4773 27.0352 47.5394C27.0968 47.7411 27.0352 47.7876 26.8043 47.7721ZM26.6195 49.9908V50.0373H26.5887L26.6195 49.9908ZM26.1885 47.5238C26.1885 47.5238 26.25 47.4152 26.3116 47.4307C26.3424 47.4307 26.3732 47.4773 26.3732 47.5083C26.3732 47.5859 26.327 47.6169 26.2654 47.6324C26.2346 47.6324 26.1885 47.6324 26.1577 47.6324C26.1577 47.6014 26.1577 47.5549 26.1731 47.5238H26.1885ZM24.5411 47.1515C24.5719 47.229 24.6027 47.3066 24.6335 47.3997C24.4487 47.3997 24.3718 47.3066 24.3872 47.136C24.4333 47.136 24.4949 47.136 24.5411 47.1515ZM24.264 46.3602C24.2794 46.4688 24.2948 46.5774 24.1408 46.6084C24.1408 46.4998 24.1408 46.4067 24.264 46.3602ZM23.7559 48.9202C23.7405 48.9513 23.7251 48.9823 23.7097 49.0133C23.6328 48.9202 23.7097 48.9357 23.7559 48.9202ZM22.124 49.3081C22.047 49.3081 21.9546 49.3081 21.8776 49.3081C21.9238 49.1995 22.0162 49.184 22.124 49.184C22.124 49.2305 22.124 49.2771 22.124 49.3236V49.3081ZM21.7391 47.5238C21.893 47.5238 21.9238 47.648 21.9854 47.7566C21.9084 47.7721 21.8161 47.7876 21.7391 47.8031C21.7083 47.7721 21.6621 47.7721 21.6313 47.7566C21.6313 47.71 21.6313 47.6635 21.6313 47.6169C21.6929 47.6169 21.7391 47.5704 21.7391 47.5083V47.5238ZM20.2919 47.1515C20.2919 47.1515 20.3227 47.1825 20.3227 47.198C20.3227 47.198 20.2919 47.229 20.2765 47.229C20.2765 47.229 20.2457 47.198 20.2457 47.1825C20.2457 47.1825 20.2765 47.1515 20.2919 47.1515ZM19.9378 51.5113C19.9378 51.5113 19.9378 51.5889 19.9378 51.6199C19.8762 51.6199 19.83 51.5734 19.83 51.5113C19.8608 51.5113 19.907 51.5113 19.9378 51.5113ZM19.83 54.1644C19.83 54.1644 19.8916 54.1955 19.9224 54.2265C19.83 54.3041 19.8454 54.211 19.83 54.1644ZM20.2149 51.7285C20.2149 51.7285 20.1225 51.6509 20.0917 51.6044C20.0917 51.682 20.0917 51.7751 20.0917 51.8526C20.0455 51.8526 20.0147 51.8682 19.9686 51.8837V51.8371C19.8916 51.8371 19.7992 51.8371 19.7222 51.8526C19.7222 51.8061 19.7222 51.7751 19.7222 51.7285C19.7992 51.7285 19.8762 51.7285 19.9532 51.713C19.9532 51.682 19.9686 51.6509 19.9686 51.6044C20.0147 51.6044 20.0609 51.6044 20.1071 51.6044C20.1071 51.5579 20.1071 51.5268 20.1071 51.4803C20.1841 51.4803 20.2765 51.4803 20.3535 51.4803C20.3535 51.5268 20.3535 51.5734 20.3535 51.6199C20.3073 51.6665 20.2611 51.6975 20.2149 51.744V51.7285ZM20.7076 56.6004C20.7076 56.6004 20.6306 56.6004 20.5998 56.6004C20.5998 56.5073 20.5998 56.4297 20.5998 56.3366C20.646 56.3366 20.6922 56.3366 20.7383 56.3366C20.7383 56.4142 20.7383 56.5073 20.7383 56.5849L20.7076 56.6004ZM20.5998 52.3647C20.5998 52.2871 20.5998 52.194 20.5998 52.1164C20.646 52.1164 20.6768 52.1164 20.723 52.1164C20.723 52.2095 20.723 52.2871 20.723 52.3802C20.6768 52.3802 20.646 52.3802 20.5998 52.3802V52.3647ZM20.723 50.5804C20.646 50.5804 20.569 50.5804 20.492 50.5649C20.5382 50.4563 20.6152 50.4252 20.723 50.4407C20.723 50.4873 20.723 50.5338 20.723 50.5804ZM20.8923 53.6369C20.8923 53.6369 20.8923 53.5904 20.8615 53.5749C20.9847 53.5128 21.0925 53.4973 21.231 53.5438C21.231 53.5749 21.231 53.6059 21.231 53.6524C21.1232 53.699 21.0001 53.6835 20.8923 53.6524V53.6369ZM21.6005 57.6244C21.5235 57.6244 21.4312 57.6244 21.3542 57.6244C21.3542 57.5934 21.3542 57.5468 21.3542 57.5158C21.4619 57.5158 21.5543 57.5003 21.6005 57.6244ZM21.6005 49.153C21.6159 49.1219 21.6313 49.0909 21.6621 49.0599C21.7545 49.1685 21.6621 49.1374 21.6005 49.153ZM21.8468 49.9287C21.8468 49.9287 21.7545 49.9287 21.7237 49.9287C21.7237 49.8512 21.7237 49.7581 21.7237 49.6805C21.7545 49.6805 21.8007 49.6805 21.8314 49.6805C21.8314 49.7581 21.8314 49.8512 21.8468 49.9287ZM22.3549 49.8046C22.2779 49.8046 22.1856 49.8046 22.1086 49.8046C22.1086 49.727 22.1086 49.6339 22.1086 49.5564C22.1856 49.5564 22.2779 49.5564 22.3549 49.5564C22.3703 49.4633 22.3549 49.3236 22.5089 49.3547C22.6012 49.3547 22.6012 49.4788 22.6012 49.5564C22.5243 49.5564 22.4319 49.5564 22.3549 49.5564C22.3549 49.6339 22.3549 49.727 22.3549 49.8046ZM22.3549 54.8006C22.3549 54.8006 22.3549 54.723 22.3549 54.6765C22.4319 54.6765 22.5243 54.6765 22.6012 54.6765C22.6012 54.7075 22.6012 54.7385 22.6012 54.7851C22.5243 54.7851 22.4319 54.7851 22.3549 54.8006ZM22.5089 59.2845C22.5089 59.1914 22.4935 59.1139 22.4781 59.0208C22.5243 59.0208 22.5704 59.0208 22.6012 59.0208C22.6012 59.1294 22.5858 59.2225 22.4935 59.269L22.5089 59.2845ZM22.6012 54.0403H22.5397H22.4781C22.4319 53.9627 22.4011 53.8697 22.3549 53.7921C22.4011 53.7921 22.4319 53.7766 22.4781 53.761C22.5243 53.761 22.5551 53.761 22.6012 53.761C22.6012 53.8697 22.5858 53.9472 22.5704 54.0403H22.6012ZM22.786 48.3927H22.7244C22.7244 48.3927 22.6936 48.2375 22.8014 48.222C22.8014 48.222 22.8168 48.3306 22.8322 48.3927H22.7706H22.786ZM22.9246 49.5564H22.863C22.863 49.4788 22.863 49.3857 22.863 49.3081C22.9092 49.3081 22.9399 49.3081 22.9861 49.3081C22.9861 49.3857 22.9861 49.4788 22.9861 49.5564H22.9246ZM23.0939 56.3521C23.0939 56.3521 23.0169 56.3521 22.9861 56.3521C22.9861 56.2745 22.9861 56.1814 22.9861 56.1039C23.0323 56.1039 23.0631 56.1039 23.1093 56.1039C23.1093 56.1814 23.1093 56.2745 23.1093 56.3521H23.0939ZM23.3556 49.2926C23.2787 49.2926 23.1863 49.2926 23.1093 49.2926C23.1863 49.153 23.2787 49.1219 23.3556 49.2926ZM23.2325 58.788C23.2325 58.7105 23.2325 58.6174 23.2479 58.5398C23.2787 58.5398 23.3094 58.5398 23.3402 58.5398C23.3864 58.6019 23.4172 58.6484 23.4634 58.7105C23.3864 58.7415 23.3094 58.7725 23.2325 58.788ZM23.7251 53.9162C23.7251 53.9162 23.6482 53.9162 23.602 53.9162C23.602 53.8231 23.602 53.7455 23.602 53.6524C23.6482 53.6524 23.6789 53.6369 23.7251 53.6214C23.7251 53.7145 23.7251 53.8076 23.7251 53.9007V53.9162ZM23.8483 51.8682C23.8483 51.8682 23.7713 51.8682 23.7405 51.8682C23.7405 51.7906 23.7405 51.6975 23.7405 51.6199C23.7867 51.6199 23.8175 51.6199 23.8637 51.6199C23.8637 51.6975 23.8637 51.7906 23.8637 51.8682H23.8483ZM23.9253 54.2731C23.9253 54.2731 23.8791 54.211 23.8637 54.18C23.9099 54.18 23.9407 54.18 23.9869 54.18L23.9253 54.2731ZM24.1716 57.6089V57.5778H24.187V57.6089H24.1716ZM24.2178 47.6635C24.1254 47.6635 24.0023 47.6635 23.9715 47.5238C24.0484 47.4773 24.11 47.4152 24.187 47.3687C24.2794 47.5238 24.4333 47.5083 24.5873 47.5083C24.5873 47.4618 24.5873 47.4307 24.5873 47.3842C24.7105 47.4152 24.8336 47.4152 24.9568 47.3532C24.9568 47.3997 24.9568 47.4307 24.9568 47.4773C24.8336 47.4773 24.7105 47.4773 24.5873 47.4928C24.5873 47.5704 24.5873 47.6635 24.5873 47.7411C24.5565 47.7411 24.5103 47.7411 24.4641 47.7411C24.4333 47.5859 24.3256 47.5859 24.2178 47.6324V47.6635ZM24.849 49.4322C24.849 49.5098 24.849 49.6029 24.849 49.6805H24.8028H24.7566C24.7566 49.6029 24.7566 49.5098 24.7566 49.4322C24.8028 49.4322 24.849 49.4322 24.8798 49.4322H24.849ZM24.6027 49.0444C24.6951 49.0599 24.7259 49.1219 24.6951 49.215C24.6951 49.215 24.6643 49.246 24.6489 49.246C24.5719 49.1995 24.5873 49.1219 24.5873 49.0444H24.6027ZM24.6027 53.7921C24.6027 53.7921 24.6643 53.7921 24.6951 53.7921C24.6951 53.8697 24.6951 53.9627 24.7105 54.0403C24.7105 54.0403 24.6181 54.0403 24.5719 54.0403C24.5719 53.9627 24.5873 53.8697 24.6027 53.7921ZM24.7105 58.0278C24.7105 58.0278 24.6335 58.0278 24.5873 58.0278C24.5873 57.8416 24.6643 57.764 24.8336 57.764C24.8336 57.8726 24.8028 57.9657 24.7105 58.0278ZM24.9568 56.3521C24.8798 56.3521 24.7874 56.3521 24.7105 56.3521C24.7105 56.3056 24.7105 56.2745 24.7105 56.228C24.7874 56.228 24.8798 56.228 24.9568 56.228C24.9568 56.2745 24.9568 56.3056 24.9568 56.3521ZM25.0954 46.9653C24.9568 46.9653 24.9876 46.8412 24.9876 46.7326C25.0492 46.7326 25.1261 46.7326 25.1877 46.7326C25.1877 46.8256 25.2647 46.9498 25.0954 46.9498V46.9653ZM25.6958 55.4988C25.6958 55.4988 25.7112 55.5608 25.7266 55.5919C25.6804 55.5919 25.6496 55.5919 25.6034 55.5919C25.6034 55.5298 25.6342 55.4833 25.6958 55.5143V55.4988ZM25.6496 55.266C25.6496 55.1885 25.7574 55.204 25.8344 55.204C25.8344 55.235 25.8344 55.2816 25.8344 55.3126C25.7574 55.3126 25.6496 55.3436 25.6342 55.266H25.6496ZM25.7882 56.74H25.7266C25.7266 56.74 25.7266 56.6624 25.7266 56.6159C25.8036 56.6159 25.8344 56.6624 25.8498 56.74H25.7882ZM25.8498 52.5198C25.7728 52.5198 25.6958 52.4888 25.6034 52.4733V52.4112C25.6034 52.4112 25.6804 52.3026 25.7112 52.256C25.7574 52.256 25.7882 52.256 25.8344 52.256C25.8344 52.3491 25.8344 52.4267 25.8344 52.5198H25.8498ZM25.8498 46.9963C25.8498 46.9963 25.7112 46.8877 25.7574 46.8101C25.8036 46.7325 25.8959 46.7481 25.9575 46.8101C26.0191 46.8567 26.0499 46.9343 26.0961 46.9963C26.0961 47.0894 26.1423 47.2135 25.9883 47.2135C25.8651 47.2135 25.8498 47.1049 25.8498 46.9963ZM26.0499 55.7005H26.0037C26.0037 55.7005 25.9729 55.5453 25.9729 55.4677C26.1115 55.4988 26.0807 55.6074 26.0499 55.7005ZM26.0961 48.4237C26.0961 48.4237 26.1885 48.3306 26.2193 48.2841C26.2654 48.3151 26.327 48.3462 26.3578 48.3772C26.4964 48.5479 26.4656 48.5944 26.2193 48.6565C26.1731 48.6099 26.1423 48.5789 26.0961 48.5323C26.0961 48.5013 26.0961 48.4548 26.0961 48.4237ZM26.2193 49.0599C26.2193 48.9823 26.2193 48.8892 26.2193 48.8116C26.2654 48.8116 26.2962 48.8116 26.3424 48.8116C26.3424 48.9202 26.3424 49.0133 26.2193 49.0599ZM26.3116 49.246C26.2192 49.3236 26.2346 49.2461 26.2193 49.1995C26.25 49.215 26.2808 49.2305 26.3116 49.246ZM26.481 56.7555H26.4656C26.327 56.7245 26.327 56.6159 26.3424 56.4918C26.4656 56.4918 26.5887 56.5073 26.6965 56.5228C26.6965 56.5538 26.6965 56.5693 26.6965 56.6004C26.6041 56.6314 26.4964 56.6469 26.481 56.771V56.7555ZM26.327 56.1039V55.9642C26.404 55.9642 26.4964 55.9797 26.5734 55.9953C26.5734 56.0263 26.5734 56.0418 26.5734 56.0728C26.4964 56.0728 26.404 56.0884 26.327 56.1039ZM26.8197 52.5043C26.8197 52.5043 26.7427 52.5043 26.6965 52.5043C26.5118 52.3802 26.5887 52.1319 26.4348 51.9923C26.404 51.9923 26.3578 51.9923 26.327 51.9923C26.327 52.0543 26.2962 52.1164 26.2962 52.163C26.2654 52.1474 26.2346 52.1319 26.2039 52.1009C26.2039 51.9768 26.2346 51.8682 26.3578 51.8061V51.8371C26.3578 51.8371 26.5118 51.8371 26.5887 51.8371C26.5887 51.8837 26.5887 51.9147 26.6041 51.9613C26.558 51.9613 26.4964 51.9613 26.4502 51.9768C26.4964 51.9768 26.558 51.9768 26.6041 51.9613C26.6811 52.0388 26.7581 52.1319 26.8351 52.2095C26.8351 52.3026 26.8351 52.3957 26.8197 52.4733V52.5043ZM26.9429 52.1164C26.9429 52.1164 26.8659 52.1164 26.8197 52.1164C26.8197 51.9768 26.8967 51.8682 26.9429 51.744C27.1122 51.744 27.2046 51.8216 27.1892 51.9923C27.0814 51.9923 26.989 52.0078 26.9275 52.1164H26.9429ZM27.1276 49.7736C27.1276 49.7736 27.0814 49.7115 27.0814 49.6805C27.0814 49.6184 27.143 49.5874 27.2046 49.6029C27.22 49.6029 27.2354 49.6495 27.2662 49.696C27.22 49.727 27.1738 49.7581 27.1276 49.7891V49.7736ZM27.7126 53.4197C27.7896 53.4197 27.882 53.4197 27.959 53.4197C27.959 53.4507 27.959 53.4973 27.959 53.5283C27.8512 53.5283 27.7588 53.5283 27.7126 53.4042V53.4197ZM27.959 46.6239C27.9436 46.4378 27.9898 46.3292 28.2053 46.3757C28.2053 46.4222 28.2053 46.4533 28.2053 46.4998C28.1591 46.5464 28.1129 46.5774 28.0821 46.6239C28.036 46.6239 28.0052 46.6239 27.959 46.6239ZM28.3439 54.18C28.3593 54.0869 28.3439 53.9472 28.4978 53.9783C28.5902 53.9783 28.5902 54.1024 28.5902 54.18C28.5132 54.18 28.4208 54.18 28.3439 54.18ZM29.1137 54.18C29.1137 54.1024 29.0829 53.9783 29.1598 53.9627C29.283 53.9162 29.3138 54.0403 29.3292 54.1489C29.2522 54.1489 29.1906 54.18 29.1137 54.18ZM29.2676 53.7145C29.2676 53.7145 29.2676 53.6059 29.2676 53.5593C29.2984 53.5593 29.3292 53.5593 29.3446 53.5593C29.3446 53.6214 29.3908 53.699 29.283 53.7145H29.2676ZM29.4678 52.737C29.4678 52.737 29.3908 52.8456 29.36 52.9077C29.36 52.9077 29.2368 52.9542 29.2368 53.0318C29.2368 53.1094 29.2368 53.187 29.2214 53.2646C29.2214 53.2646 29.1444 53.2646 29.0983 53.2646C29.0983 53.1715 29.0983 53.0473 28.9751 53.0163C28.9751 52.9698 28.9751 52.9387 28.9751 52.8922C28.9751 52.8922 29.0829 52.8301 29.0983 52.7681C29.1444 52.7215 29.1906 52.675 29.2214 52.6439C29.2984 52.6439 29.3754 52.6439 29.4678 52.6595H29.4524C29.4524 52.6595 29.4524 52.706 29.4524 52.7215L29.4678 52.737ZM28.9751 51.8837C29.0059 51.8992 29.0367 51.9147 29.0675 51.9302C28.9751 52.0078 28.9905 51.9302 28.9751 51.8837ZM29.6063 50.4718C29.5293 50.4718 29.4678 50.5338 29.4832 50.6269C29.3138 50.6114 29.2522 50.72 29.2214 50.8597C29.1752 50.8597 29.1444 50.8597 29.0983 50.8597C29.0829 50.7976 29.0521 50.751 28.9751 50.751C28.8827 50.751 28.8057 50.751 28.7134 50.751C28.6826 50.658 28.7442 50.5804 28.8057 50.5183C28.775 50.4718 28.7288 50.4252 28.698 50.3787C28.6056 50.5183 28.4978 50.6424 28.3439 50.7355C28.0513 50.7976 28.1129 50.5338 28.0513 50.3787C28.0206 50.3321 27.9898 50.2701 27.959 50.2235C28.0052 50.2235 28.0513 50.2235 28.0821 50.2235C28.0821 50.2546 28.0821 50.3011 28.0821 50.3321C28.1129 50.3321 28.1591 50.3476 28.1899 50.3476C28.4055 50.5649 28.4208 50.3632 28.4516 50.208C28.5286 50.1615 28.6056 50.1149 28.6826 50.0684C28.6826 50.1615 28.6826 50.239 28.698 50.3321C28.7442 50.3787 28.775 50.4252 28.8057 50.4718C28.8519 50.5338 28.8827 50.6114 28.9289 50.6735C28.9751 50.6424 29.0059 50.6114 29.0521 50.5804C29.206 50.5493 29.1445 50.5028 29.0521 50.4563C29.0521 50.4252 29.0521 50.3942 29.0521 50.3632C29.2676 50.3321 29.3497 50.239 29.2984 50.0839C29.2984 50.0839 29.3754 50.0839 29.4216 50.0839C29.4986 50.0839 29.5755 50.0994 29.6525 50.1149C29.6525 50.1925 29.6833 50.2701 29.6833 50.3476C29.6217 50.3787 29.5601 50.4097 29.5601 50.4873L29.6063 50.4718ZM29.7295 48.9202C29.7295 48.9202 29.7295 48.8427 29.7295 48.8116C29.7295 48.7651 29.7295 48.734 29.7295 48.6875C29.8065 48.6875 29.8988 48.6875 29.9758 48.6875C29.9758 48.8582 29.8988 48.9513 29.7295 48.9357V48.9202ZM30.3607 50.5959C30.2837 50.5959 30.2068 50.5959 30.1144 50.5959C30.1452 50.4563 30.2529 50.4563 30.3607 50.4718C30.3607 50.4718 30.3607 50.5493 30.3607 50.5959ZM30.3607 42.5124C30.3607 42.4348 30.3607 42.3417 30.3607 42.2641C30.4069 42.2641 30.4377 42.2641 30.4839 42.2641C30.4839 42.3572 30.4839 42.4348 30.4839 42.5279C30.4377 42.5279 30.4069 42.5279 30.3607 42.5279V42.5124ZM30.7148 47.6324C30.6378 47.6324 30.5609 47.6324 30.4685 47.648C30.4685 47.6014 30.4685 47.5549 30.4685 47.4928C30.4993 47.4928 30.5301 47.4928 30.5455 47.4928C30.607 47.4928 30.6532 47.4928 30.7148 47.4928C30.7148 47.5394 30.7148 47.5704 30.7148 47.6014V47.6324ZM30.8534 35.8562C30.8842 35.8717 30.915 35.9028 30.9458 35.9183C30.8534 35.9959 30.8688 35.9183 30.8534 35.8562ZM31.0997 43.5364C31.0535 43.5364 31.0227 43.5209 31.0381 43.4743C31.0381 43.4743 31.0689 43.4743 31.0843 43.4743C31.0843 43.4743 31.0843 43.5053 31.0997 43.5209V43.5364ZM31.4846 48.9357C31.4384 49.0444 31.3307 49.0754 31.2229 49.0599C31.2229 48.9668 31.2229 48.8892 31.2229 48.8116C31.2691 48.8116 31.2999 48.8116 31.3461 48.8116C31.3922 48.8582 31.423 48.9047 31.4692 48.9357H31.4846ZM31.4846 46.8877C31.4846 46.8877 31.4846 46.7946 31.4846 46.7636C31.5616 46.7636 31.654 46.7636 31.7309 46.7636C31.6848 46.8722 31.5924 46.8877 31.4846 46.8877ZM31.8541 46.1119C31.7771 46.1119 31.6848 46.1119 31.6078 46.1119C31.6078 46.0654 31.6078 46.0344 31.6078 45.9878C31.6848 45.9878 31.7771 45.9878 31.8541 45.9878C31.8541 46.0188 31.8541 46.0654 31.8541 46.0964V46.1119ZM31.9311 48.9357H31.8695C31.8695 48.8427 31.8695 48.7651 31.8695 48.6875C31.9157 48.6875 31.9465 48.6875 31.9927 48.6875C31.9927 48.7806 31.9927 48.8582 31.9927 48.9513H31.9311V48.9357ZM31.9927 43.164C31.9927 43.164 31.9927 43.0864 31.9927 43.0399C32.0235 43.0554 32.0543 43.0709 32.085 43.1019C32.0543 43.1175 32.0235 43.1485 31.9927 43.164ZM31.9927 41.628C31.9927 41.628 32.0697 41.628 32.1004 41.628C32.1004 41.7055 32.1004 41.7986 32.1004 41.8762C31.926 41.8452 31.8849 41.7573 31.9773 41.6125L31.9927 41.628ZM32.239 33.4203C32.316 33.4203 32.4084 33.4203 32.4853 33.4203C32.4853 33.4669 32.4853 33.4979 32.4853 33.5444C32.4084 33.5444 32.316 33.5444 32.239 33.5444C32.239 33.4979 32.239 33.4669 32.239 33.4203ZM32.4545 39.6575C32.4545 39.6575 32.4084 39.5954 32.4084 39.5644C32.4084 39.5024 32.4699 39.4713 32.5315 39.4868C32.5623 39.4868 32.5623 39.5489 32.5777 39.5799C32.5623 39.642 32.5161 39.673 32.4545 39.6575ZM32.8702 38.4163C32.9472 38.4163 33.0396 38.4318 33.1166 38.4473C33.1166 38.4783 33.1166 38.5094 33.1166 38.5404C33.0088 38.5404 32.8856 38.5869 32.8702 38.4163ZM32.8702 39.7041C32.8702 39.7041 32.9318 39.5954 32.9934 39.5799C32.9934 39.6265 32.9934 39.6575 32.9934 39.7041C32.9472 39.7041 32.9164 39.7041 32.8702 39.7041ZM33.1166 45.2276C33.1166 45.3051 33.1166 45.3982 33.1166 45.4758C33.0704 45.4758 33.0396 45.4758 32.9934 45.4758C32.9934 45.3827 32.9934 45.3051 32.9934 45.212C33.0396 45.212 33.0704 45.212 33.1166 45.212V45.2276ZM33.2243 32.9083H33.1935H33.1628C33.132 32.8152 33.1166 32.7066 33.0088 32.6445C33.0088 32.6135 33.0088 32.567 33.0088 32.5359C33.0858 32.5359 33.1781 32.5359 33.2551 32.5359C33.2859 32.66 33.2705 32.7997 33.2243 32.9238V32.9083ZM33.6246 38.2922H33.563H33.5015C33.5015 38.2456 33.5015 38.2146 33.5015 38.168C33.5476 38.168 33.5784 38.168 33.6246 38.168C33.6246 38.2146 33.6246 38.2456 33.6246 38.2922ZM33.6246 37.144C33.6246 37.144 33.7016 37.144 33.7324 37.144C33.7324 37.1906 33.7324 37.2216 33.7324 37.2681C33.6708 37.2681 33.6246 37.2061 33.6092 37.144H33.6246ZM34.0557 33.1721H33.9941C33.9941 33.0945 33.9941 33.0014 33.9941 32.9238C34.0249 32.9238 34.0711 32.9238 34.1019 32.9238C34.1019 33.0014 34.1019 33.0945 34.1019 33.1721H34.0403H34.0557ZM34.2405 39.4558C34.2405 39.4558 34.1635 39.4558 34.1173 39.4558C34.1173 39.3782 34.1173 39.2851 34.1173 39.2076C34.1635 39.2076 34.1943 39.2076 34.2405 39.2076C34.2405 39.2851 34.2405 39.3782 34.2405 39.4558ZM34.1635 35.5304C34.1635 35.5304 34.1635 35.3908 34.2405 35.3442C34.2866 35.3908 34.3328 35.4373 34.3944 35.4839C34.3328 35.5614 34.2559 35.639 34.1635 35.5304ZM34.4868 39.3317C34.456 39.3162 34.4252 39.3007 34.4098 39.2851C34.4868 39.2076 34.4714 39.2851 34.4868 39.3317ZM34.6254 39.099C34.6254 39.099 34.5484 39.0369 34.5638 39.0214C34.5946 38.9283 34.6869 38.9593 34.7485 38.9593C34.7023 39.0059 34.6715 39.0524 34.6254 39.099ZM34.8871 45.7396C34.8871 45.7396 34.8871 45.662 34.8871 45.6154C34.9333 45.6154 34.9641 45.6154 35.0102 45.6154C35.0102 45.693 34.9641 45.724 34.8871 45.7396ZM34.8871 42.7761C34.8871 42.7761 34.8871 42.6985 34.8871 42.6675C34.9333 42.621 34.9641 42.5744 35.0102 42.5279C35.0564 42.5279 35.0872 42.5279 35.1334 42.5279C35.1334 42.621 35.1334 42.6985 35.1334 42.7916C35.0564 42.7916 34.9795 42.7916 34.8871 42.7916V42.7761ZM35.4259 44.7776C35.4259 44.7776 35.3182 44.7776 35.3028 44.7155C35.3028 44.6845 35.3182 44.638 35.349 44.6224C35.4105 44.5914 35.4567 44.6225 35.4721 44.669C35.4721 44.7 35.4567 44.7466 35.4259 44.7621V44.7776ZM35.8878 44.8397C35.8878 44.8397 35.9648 44.8397 36.011 44.8397C36.011 44.8862 36.011 44.9172 36.011 44.9638C35.934 44.9638 35.9032 44.9172 35.8878 44.8397ZM36.011 42.4037H35.9494H35.8878C35.8878 42.3262 35.8878 42.2331 35.8878 42.1555C35.934 42.1555 35.9802 42.1555 36.011 42.1555C36.011 42.2331 36.011 42.3262 36.011 42.4037ZM36.3805 39.4403C36.3035 39.4403 36.2111 39.4558 36.1341 39.4713C36.1341 39.4248 36.1341 39.3782 36.1341 39.3472C36.2111 39.3472 36.3035 39.3472 36.3805 39.3472C36.3805 39.3472 36.3805 39.4093 36.3805 39.4403ZM36.6422 46.9032C36.7192 46.9032 36.8116 46.9032 36.8885 46.9032C36.8116 47.0739 36.7346 47.0429 36.6422 46.9032ZM37.1503 46.3757C37.1503 46.3757 37.1503 46.2981 37.1503 46.2516C37.2272 46.2516 37.3196 46.2516 37.3966 46.2516C37.3966 46.2981 37.3966 46.3447 37.3966 46.3757C37.3196 46.3757 37.2272 46.3757 37.1503 46.3757Z" fill="#F0E74D"/>
<path d="M36.2726 25.3504L36.301 25.306L36.2726 25.3504Z" fill="#F0E74D"/>
<path d="M41.7686 9.37143C41.6917 9.29386 41.7686 9.21628 41.8302 9.16973L42.2921 7.68025L34.8098 4.79438L30.3758 26.4384L36.2108 26.9659L41.7686 9.35592C41.7686 9.35592 41.7687 9.35592 41.7533 9.35592L41.7686 9.37143ZM41.8302 7.89747C41.8148 7.9285 41.7994 7.95953 41.784 7.99056C41.6917 7.89747 41.784 7.91298 41.8302 7.89747ZM37.1499 9.69726C37.1499 9.69726 37.2423 9.77484 37.2885 9.80587C37.2577 9.96102 37.1499 9.94551 37.0421 9.92999C37.0421 9.8369 37.0421 9.7438 37.1499 9.69726ZM36.6418 25.1972C36.5187 25.1506 36.5187 25.0575 36.5341 24.9489C36.7034 24.9644 36.6572 25.0886 36.6418 25.1972ZM36.3955 22.9164C36.3955 22.994 36.3955 23.0716 36.3955 23.1491C36.2416 23.0716 36.257 22.994 36.3955 22.9164ZM34.2555 8.28535C34.2555 8.36293 34.2555 8.45602 34.2555 8.5336C34.1477 8.48705 34.1323 8.37845 34.1323 8.28535C34.1785 8.28535 34.2093 8.28535 34.2555 8.28535ZM34.2247 22.963C34.2247 22.963 34.1631 22.994 34.1323 23.025C34.0708 23.0095 34.0246 22.963 34.0554 22.8854C34.0554 22.8544 34.1169 22.8233 34.1477 22.8233C34.2247 22.8233 34.2555 22.8854 34.2247 22.963ZM34.1169 16.3689C34.1169 16.3999 34.0861 16.431 34.0861 16.462C34.0708 16.4465 34.0554 16.431 34.04 16.4154C34.0708 16.4154 34.1015 16.3844 34.1323 16.3689H34.1169ZM33.6243 16.2293C33.6243 16.3999 33.6089 16.5706 33.5935 16.7413C33.4857 16.6947 33.4857 16.5861 33.4703 16.4775C33.4703 16.3999 33.4703 16.3068 33.4703 16.2293C33.4703 16.2293 33.5627 16.2293 33.5935 16.2293H33.6243ZM31.9769 23.4129C31.9769 23.4129 32.0539 23.4129 32.1001 23.4129C32.1001 23.5215 32.1001 23.6146 31.9769 23.6612C31.9769 23.5681 31.9769 23.4905 31.9769 23.3974V23.4129ZM31.8692 25.973C31.8692 25.973 31.8692 25.9109 31.8692 25.8799C31.9461 25.8799 32.0385 25.8799 32.1155 25.8643C32.1155 25.9109 32.1155 25.9574 32.1155 26.004C32.0385 26.004 31.9615 26.004 31.8845 26.004L31.8692 25.973ZM32.3618 22.1251C32.3618 22.032 32.3618 21.9545 32.3618 21.8769C32.4388 21.8769 32.5312 21.8924 32.6082 21.9079C32.6082 22.0786 32.5312 22.1406 32.3772 22.1406L32.3618 22.1251ZM32.7313 15.7172C32.7621 15.7328 32.7929 15.7638 32.8237 15.7793C32.7313 15.8724 32.7467 15.7793 32.7313 15.7172ZM33.1008 22.7613C33.1008 22.7613 33.0238 22.7613 32.9777 22.7613C32.9777 22.6682 33.0238 22.6371 33.1008 22.6371C33.1008 22.6837 33.1008 22.7147 33.1008 22.7613ZM33.2394 15.5776C33.2394 15.5776 33.2086 15.469 33.147 15.438C33.147 15.3914 33.147 15.3449 33.1316 15.2983C33.1624 15.2983 33.1932 15.2983 33.224 15.2983C33.2702 15.2983 33.3164 15.2983 33.3625 15.2983C33.3625 15.2983 33.4395 15.3914 33.5011 15.4069C33.5165 15.5311 33.5011 15.6242 33.3779 15.6707C33.3318 15.6242 33.2856 15.5931 33.2394 15.5466V15.5776ZM33.2702 17.8584C33.2702 17.8584 33.2548 17.7963 33.2394 17.7653C33.2702 17.7808 33.301 17.7963 33.3164 17.8118C33.301 17.8118 33.2856 17.8429 33.2702 17.8584ZM33.3625 22.9319C33.3318 22.8544 33.3933 22.7923 33.4703 22.7768C33.4703 22.8544 33.4703 22.9319 33.4703 23.025C33.4241 22.994 33.3625 22.9785 33.3472 22.9474L33.3625 22.9319ZM33.4857 17.5015C33.5319 17.5015 33.5627 17.5015 33.6089 17.5015C33.6397 17.5015 33.6705 17.5481 33.6859 17.5636C33.6551 17.5791 33.6243 17.6101 33.5781 17.6101C33.5165 17.6101 33.4857 17.5481 33.4703 17.486L33.4857 17.5015ZM33.7166 24.9334C33.7166 24.9334 33.6397 24.9334 33.6089 24.9334C33.6089 24.8403 33.6089 24.7627 33.6089 24.6697C33.6551 24.6697 33.7013 24.6697 33.732 24.6697C33.732 24.7472 33.732 24.8403 33.732 24.9179L33.7166 24.9334ZM33.7166 25.9574C33.7166 25.9574 33.7166 25.8023 33.7166 25.7247C33.7474 25.7247 33.7782 25.7247 33.809 25.7247C33.8398 25.8333 33.9014 25.9574 33.7013 25.973L33.7166 25.9574ZM33.809 24.3749C33.809 24.3749 33.7782 24.3438 33.7474 24.3128C33.7782 24.2973 33.809 24.2818 33.8552 24.2663C33.8552 24.2663 33.8244 24.3438 33.7936 24.3749H33.809ZM33.732 18.7583C33.732 18.6807 33.732 18.6031 33.732 18.51C33.809 18.51 33.8552 18.5721 33.886 18.6342C33.8398 18.6652 33.7936 18.7117 33.7474 18.7428L33.732 18.7583ZM34.5634 24.8869C34.5634 24.8869 34.4864 24.8403 34.4864 24.7938C34.5326 24.7938 34.5634 24.7938 34.6096 24.7938C34.6096 24.8248 34.5788 24.8869 34.5634 24.8869ZM34.4864 24.561C34.4864 24.561 34.4095 24.561 34.3633 24.561C34.2401 24.561 34.1169 24.5455 33.9938 24.53C33.9938 24.4524 33.9938 24.3593 33.9784 24.2818C34.1939 24.2818 34.4095 24.2818 34.625 24.2818C34.625 24.3749 34.625 24.4524 34.625 24.5455C34.5788 24.5455 34.5326 24.561 34.5018 24.5766L34.4864 24.561ZM34.6096 19.022C34.6096 19.022 34.6096 18.9445 34.6096 18.8979C34.6866 18.8979 34.779 18.8979 34.8559 18.8979C34.8559 18.9445 34.8559 18.9755 34.8559 19.022C34.779 19.022 34.6866 19.022 34.6096 19.022ZM34.9945 16.462C34.9945 16.462 34.9021 16.5551 34.8713 16.5861C34.8713 16.5861 34.7944 16.5861 34.7482 16.5861C34.7482 16.5085 34.7482 16.4154 34.7482 16.3379C34.8251 16.3379 34.9175 16.3379 34.9945 16.3379C34.9945 16.3379 34.9945 16.4154 34.9945 16.462ZM35.3794 23.2422C35.3794 23.2422 35.3794 23.1647 35.3794 23.1336C35.4564 23.1336 35.5487 23.1336 35.6257 23.1336C35.5949 23.2888 35.4872 23.2578 35.3794 23.2422ZM35.6257 15.438C35.7027 15.438 35.7951 15.438 35.8721 15.438C35.8721 15.5931 35.7951 15.6862 35.6411 15.6862C35.6411 15.6086 35.6411 15.5155 35.6257 15.438ZM35.8567 26.5936C35.8567 26.5936 35.7951 26.5936 35.7489 26.5936C35.7489 26.516 35.7489 26.4229 35.7489 26.3453C35.7951 26.3453 35.8413 26.3453 35.8875 26.3453C35.8875 26.4229 35.8875 26.516 35.8721 26.5936H35.8567ZM35.8567 26.2057C35.6822 26.1643 35.6411 26.0764 35.7335 25.9419C35.7335 25.9419 35.8105 25.9419 35.8567 25.9574C35.8567 26.035 35.8567 26.1281 35.8567 26.2057ZM36.6111 25.5696C36.6111 25.5696 36.5341 25.5696 36.5033 25.5851L36.4725 25.554L36.5033 25.5851C36.5033 25.5851 36.5033 25.6626 36.5033 25.6937C36.5033 25.8643 36.4109 25.9574 36.2416 25.9574C36.2416 25.9109 36.2416 25.8643 36.2416 25.8178C36.3031 25.8178 36.3493 25.8178 36.3339 25.7247C36.3339 25.7092 36.2724 25.6937 36.2416 25.6937C36.2416 25.6161 36.2416 25.5385 36.2416 25.4609C36.1954 25.4609 36.1646 25.4609 36.1184 25.4454C36.1184 25.3989 36.1184 25.3679 36.1184 25.3213H36.0722C36.0722 25.3213 36.18 25.2282 36.2262 25.1817C36.2262 25.2127 36.2262 25.2437 36.257 25.2903C36.3493 25.3058 36.4417 25.3368 36.5033 25.4299C36.5341 25.4299 36.5803 25.4454 36.6111 25.4454C36.6111 25.492 36.6111 25.523 36.6111 25.5696ZM36.842 19.4099H36.7958H36.7496C36.7496 19.3323 36.7342 19.2393 36.7188 19.1617C36.765 19.1617 36.8112 19.1617 36.8574 19.1617C36.8574 19.2393 36.842 19.3323 36.8266 19.4099H36.842ZM36.6265 5.70979C36.7034 5.70979 36.7958 5.70979 36.8728 5.70979C36.8728 5.75634 36.8728 5.80288 36.8728 5.83391C36.765 5.84943 36.6572 5.83391 36.6265 5.70979ZM37.1191 22.1251C37.1191 22.1251 37.1191 22.2027 37.1191 22.2337C36.9344 22.2648 36.8574 22.1717 36.8882 22.001C36.919 22.001 36.9652 22.001 36.996 22.001C37.0421 22.0475 37.0883 22.0941 37.1345 22.1251H37.1191ZM37.3808 10.3334C37.3039 10.3334 37.2115 10.3334 37.1345 10.3179C37.1345 10.2868 37.1345 10.2403 37.1345 10.2093C37.2115 10.2093 37.3039 10.2093 37.3808 10.2093C37.3808 10.2093 37.3808 10.3024 37.3808 10.3334ZM37.8735 15.5931H37.8119H37.7503C37.7042 15.5466 37.658 15.5155 37.6118 15.469C37.6118 15.469 37.6118 15.3759 37.6118 15.3294C37.658 15.3294 37.6888 15.3294 37.735 15.3294C37.7811 15.3294 37.8119 15.3294 37.8581 15.3294C37.8581 15.4069 37.8581 15.5 37.8581 15.5776L37.8735 15.5931ZM38.2738 10.3334C38.2738 10.2558 38.2738 10.1627 38.2738 10.0851C38.3046 10.0851 38.3508 10.0851 38.3816 10.0851C38.3816 10.1627 38.3816 10.2558 38.3816 10.3334C38.3816 10.3334 38.3046 10.3334 38.2584 10.3334H38.2738ZM38.5047 13.0176C38.5047 13.0176 38.4432 13.0176 38.4124 13.0176C38.4124 12.94 38.4124 12.8469 38.397 12.7693C38.4432 12.7693 38.4893 12.7693 38.5201 12.7693C38.5201 12.8624 38.5201 12.94 38.5047 13.0331V13.0176ZM39.1514 15.438C39.1514 15.438 39.1514 15.3604 39.1514 15.3294C39.2437 15.3294 39.3207 15.3294 39.4131 15.3294C39.3823 15.5 39.2745 15.469 39.1668 15.438H39.1514ZM39.4593 16.3534H39.3977C39.3977 16.2603 39.3977 16.1827 39.3977 16.1051C39.4285 16.1051 39.4747 16.1051 39.5055 16.1051C39.5055 16.1827 39.5055 16.2758 39.5055 16.3534H39.4439H39.4593ZM40.2599 7.36994C40.2599 7.36994 40.2753 7.29237 40.2753 7.24582C40.3214 7.24582 40.3522 7.24582 40.3984 7.24582C40.4908 7.30788 40.5524 7.38546 40.4292 7.47855C40.3522 7.5251 40.2907 7.47855 40.2445 7.38546L40.2599 7.36994ZM40.4138 13.2658C40.4138 13.1882 40.4138 13.0951 40.4138 13.0176C40.46 13.0176 40.4908 13.0176 40.537 13.0176C40.537 13.0176 40.537 13.0951 40.5524 13.1417C40.5062 13.1882 40.46 13.2193 40.4292 13.2658H40.4138ZM40.537 12.8779C40.537 12.8779 40.537 12.8003 40.537 12.7538C40.5678 12.7693 40.5986 12.7848 40.6294 12.8159C40.5986 12.8314 40.5678 12.8624 40.537 12.8779ZM40.7833 8.26984C40.7063 8.26984 40.614 8.26984 40.537 8.26984C40.537 8.23881 40.537 8.19226 40.537 8.16123C40.614 8.16123 40.7063 8.16123 40.7833 8.16123C40.7833 8.20778 40.7833 8.23881 40.7833 8.28535V8.26984Z" fill="#F0E74D"/>
<path d="M28.5585 17.2377C28.5585 17.2377 28.5585 17.1757 28.5585 17.1446C28.6201 17.1446 28.6817 17.1446 28.7433 17.1446L28.4353 0.946533H20.0908L20.5835 6.2373C20.5835 6.2373 20.5989 6.2373 20.6143 6.2373C20.5989 6.26833 20.5989 6.28384 20.5989 6.31487L22.1077 22.3734C22.1077 22.3734 22.2 22.4199 22.2154 22.482H22.1231L22.431 25.6937H22.508C22.508 25.6937 22.5388 25.6471 22.5695 25.6161C22.5849 25.6471 22.6157 25.6781 22.6311 25.7092C22.6003 25.7092 22.5849 25.7092 22.5541 25.7092L28.9588 26.4229L28.774 17.2533C28.774 17.2533 28.6509 17.2533 28.5739 17.2377H28.5585ZM20.4757 2.38947C20.4757 2.38947 20.3833 2.38947 20.3525 2.38947C20.3525 2.38947 20.3525 2.29638 20.3525 2.26535C20.3987 2.26535 20.4295 2.26535 20.4757 2.26535C20.4757 2.31189 20.4757 2.35844 20.4757 2.38947ZM21.7536 14.4139C21.7536 14.3364 21.7536 14.2588 21.7536 14.1812C21.8305 14.1812 21.9229 14.1812 21.9999 14.1967C21.9999 14.1967 21.9999 14.2588 21.9999 14.3053C21.9537 14.3519 21.9075 14.3984 21.8613 14.445C21.8305 14.445 21.7998 14.445 21.769 14.4294L21.7536 14.4139ZM21.8613 18.1532C21.8613 18.1532 21.8613 18.0601 21.8613 18.029C21.9383 18.029 22.0307 18.029 22.1077 18.029C22.1077 18.0756 22.1077 18.1066 22.1077 18.1532C22.0307 18.1532 21.9383 18.1532 21.8613 18.1532ZM22.1077 18.2773C22.1077 18.2773 22.0615 18.3238 22.0461 18.3393C22.0461 18.3393 22.0461 18.3083 22.0461 18.2928C22.0461 18.2928 22.0769 18.2773 22.0923 18.2773H22.1077ZM22.1077 17.7653C22.0307 17.7653 21.9383 17.7653 21.8613 17.7653C21.8613 17.7342 21.8613 17.6877 21.8613 17.6567C21.9383 17.6567 22.0307 17.6567 22.1077 17.6567C22.1077 17.7032 22.1077 17.7342 22.1077 17.7808V17.7653ZM22.5541 22.6992C22.4772 22.7768 22.4156 22.7147 22.3694 22.6371C22.4156 22.5906 22.4464 22.544 22.4926 22.513C22.5695 22.5595 22.6311 22.6216 22.5541 22.6992ZM22.3848 12.3038C22.3848 12.3038 22.4464 12.2728 22.4926 12.2418C22.4926 12.2728 22.4926 12.3193 22.4926 12.3504C22.4618 12.3349 22.431 12.3193 22.4002 12.2883L22.3848 12.3038ZM22.6003 3.5221C22.4156 3.5221 22.3386 3.46003 22.354 3.27385C22.431 3.27385 22.5234 3.27385 22.6003 3.28936C22.6003 3.36694 22.6003 3.44452 22.6003 3.5221ZM28.2198 8.93698C28.2198 8.93698 28.2814 8.93698 28.2968 8.93698C28.3276 8.9525 28.3584 8.9525 28.3892 8.93698C28.3892 9.01456 28.4199 9.09214 28.4199 9.16971C28.343 9.16971 28.266 9.16971 28.189 9.16971C28.189 9.09214 28.2044 9.01456 28.2198 8.93698ZM28.2044 12.7848C28.2044 12.7848 28.266 12.7848 28.2814 12.7848C28.2814 12.8624 28.2814 12.94 28.2968 13.0175C28.1428 12.9865 28.1736 12.8779 28.189 12.7693L28.2044 12.7848ZM27.6809 9.30935C27.6809 9.30935 27.6809 9.38693 27.6809 9.43348C27.5732 9.38693 27.5732 9.3559 27.6809 9.30935ZM27.5424 14.957C27.5424 14.957 27.5424 15.0966 27.5424 15.1587C27.5116 15.1587 27.4808 15.1587 27.4654 15.1897C27.4346 15.0811 27.3884 14.9725 27.5578 14.957H27.5424ZM27.5424 18.6652H27.4808H27.4192C27.4192 18.6186 27.4192 18.5876 27.4192 18.541C27.4962 18.541 27.527 18.5876 27.5424 18.6652ZM23.7242 16.9274C23.7242 16.9274 23.6626 16.974 23.6472 16.9895C23.6472 16.9429 23.6472 16.9119 23.6472 16.8654C23.678 16.8809 23.7088 16.8964 23.7396 16.9274H23.7242ZM22.7389 12.5055C22.7389 12.428 22.7543 12.3349 22.7697 12.2573C22.8005 12.2573 22.8313 12.2573 22.8621 12.2573C22.8621 12.3659 22.8929 12.4745 22.7389 12.5055ZM22.8621 21.9855H22.8005H22.7389C22.7389 21.9079 22.7851 21.8769 22.8621 21.8613C22.8621 21.8924 22.8621 21.9389 22.8621 21.97V21.9855ZM22.6157 4.934C22.6157 4.934 22.6157 4.85642 22.6157 4.80988C22.6927 4.80988 22.7851 4.80988 22.8621 4.80988C22.8621 4.85642 22.8621 4.88745 22.8621 4.934C22.7851 4.934 22.6927 4.934 22.6157 4.934ZM23.1084 18.7738C23.1084 18.7738 23.0314 18.7738 23.0006 18.7738C23.0006 18.6962 23.0006 18.6031 23.0006 18.5255C23.1546 18.5566 23.1238 18.6652 23.1084 18.7738ZM23.0006 13.9019C23.0006 13.9019 22.9236 13.8088 22.8775 13.7778C22.9236 13.6692 23.0314 13.6537 23.1392 13.6537C23.1392 13.7623 23.1238 13.8554 23.016 13.9174L23.0006 13.9019ZM23.1392 2.99457C23.1392 2.91699 23.1392 2.8239 23.1392 2.74632C23.1854 2.74632 23.2162 2.74632 23.2624 2.74632C23.2624 2.83942 23.2624 2.91699 23.2624 3.01009C23.2162 3.01009 23.1854 3.01009 23.1392 3.01009V2.99457ZM23.6319 20.1857C23.6319 20.1857 23.5549 20.0926 23.5087 20.046C23.6011 19.8754 23.7396 19.9219 23.8782 19.9219C23.8782 19.9995 23.8782 20.0926 23.8782 20.1702C23.7858 20.1702 23.7088 20.1702 23.6165 20.1702L23.6319 20.1857ZM23.8936 12.6141C23.8936 12.6141 23.9706 12.6141 24.0167 12.6141C24.0167 12.6607 24.0167 12.6917 24.0167 12.7383C23.9552 12.7227 23.909 12.6762 23.8936 12.6141ZM24.1399 23.3819C24.0629 23.3353 24.0014 23.2577 24.0783 23.1802C24.1553 23.1026 24.2323 23.1646 24.2631 23.2422C24.2169 23.2888 24.1707 23.3198 24.1399 23.3663V23.3819ZM24.3709 6.70276C24.3709 6.70276 24.2939 6.70276 24.2631 6.70276C24.2631 6.88895 24.1861 6.96652 24.0167 6.95101C23.9706 6.87343 23.9398 6.78034 23.8936 6.70276C23.8936 6.70276 23.986 6.62518 24.0321 6.57864C24.0629 6.57864 24.1091 6.57864 24.1399 6.57864C24.1861 6.62518 24.2169 6.65621 24.2631 6.70276C24.2631 6.62518 24.2631 6.53209 24.2631 6.45451C24.3093 6.45451 24.3401 6.45451 24.3862 6.45451C24.3862 6.53209 24.3862 6.62518 24.3862 6.70276H24.3709ZM24.3709 15.1742C24.3709 15.0811 24.3709 15.0035 24.3709 14.9104C24.4016 14.9104 24.4478 14.9104 24.4786 14.9104C24.4786 14.988 24.4786 15.0811 24.4786 15.1587C24.4324 15.1587 24.3862 15.1587 24.3555 15.1587L24.3709 15.1742ZM24.6326 20.8063C24.6736 20.6305 24.7609 20.5891 24.8943 20.6822C24.8481 20.7908 24.7404 20.8063 24.6326 20.8063ZM24.7557 14.1191C24.7557 14.1191 24.6634 14.0416 24.6172 14.0105C24.6172 13.933 24.6172 13.8399 24.6018 13.7623H24.6172C24.6172 13.7623 24.7096 13.6692 24.7557 13.6382C24.8019 13.6382 24.8327 13.6382 24.8789 13.6382C24.8789 13.6847 24.8789 13.7157 24.8789 13.7623C24.9251 13.8864 25.0175 13.995 25.0021 14.1347C24.9251 14.1347 24.8327 14.1347 24.7557 14.1347V14.1191ZM25.0021 9.65069C24.9251 9.65069 24.8327 9.65069 24.7557 9.65069C24.7557 9.60415 24.7557 9.57312 24.7557 9.52657C24.8327 9.52657 24.9251 9.52657 25.0021 9.52657C25.0021 9.57312 25.0021 9.60415 25.0021 9.65069ZM25.1406 7.47853C25.1406 7.47853 25.2176 7.47853 25.2484 7.47853C25.2484 7.55611 25.2484 7.63369 25.2484 7.72678C25.0945 7.69575 25.1098 7.58714 25.1252 7.47853H25.1406ZM25.1868 24.1111C25.1868 24.1111 25.156 24.049 25.1406 24.018C25.1868 24.018 25.2176 24.018 25.2638 24.018C25.2638 24.0645 25.2638 24.1266 25.1868 24.1111ZM25.2638 14.9104C25.3408 14.9104 25.4332 14.9104 25.5101 14.9104C25.4793 15.0656 25.3716 15.0501 25.2638 15.0345C25.2638 14.988 25.2638 14.957 25.2638 14.9104ZM25.387 22.0786C25.387 22.0786 25.2792 22.032 25.2638 21.9544C25.31 21.9544 25.3408 21.9544 25.387 21.9544C25.387 22.001 25.387 22.032 25.387 22.0786ZM25.5101 22.9785C25.5101 22.9785 25.4332 22.9785 25.387 22.9785C25.387 22.8854 25.4332 22.8543 25.5101 22.8543C25.5101 22.9009 25.5101 22.9319 25.5101 22.9785ZM25.387 20.4184C25.387 20.3408 25.387 20.2477 25.387 20.1702C25.4178 20.1702 25.464 20.1702 25.4947 20.1702C25.4947 20.2477 25.4947 20.3408 25.4947 20.4184C25.4486 20.4184 25.4024 20.4184 25.3562 20.4184H25.387ZM25.6949 14.5846C25.6179 14.507 25.6949 14.4294 25.7565 14.3984C25.8027 14.445 25.8335 14.4915 25.8796 14.5225C25.8335 14.6001 25.7565 14.6622 25.6949 14.5846ZM26.126 16.5861C26.1414 16.6947 26.1414 16.8033 26.0182 16.8499C25.9874 16.8343 25.9566 16.8188 25.9104 16.8188C25.9104 16.8188 25.9104 16.7412 25.895 16.7102C25.9412 16.6637 25.972 16.6171 26.0182 16.5706C26.0644 16.5706 26.0952 16.5706 26.1414 16.5861H26.126ZM26.2491 14.1502C26.2029 14.2277 26.1568 14.3053 26.1106 14.3984H26.0798H26.049C26.049 14.3208 26.0336 14.2433 26.0182 14.1502C26.0952 14.1502 26.1722 14.1502 26.2645 14.1502H26.2491ZM26.7726 10.5661C26.7264 10.5661 26.6956 10.5661 26.6494 10.5661C26.6494 10.5196 26.6494 10.4885 26.6494 10.442C26.6956 10.442 26.7264 10.442 26.7726 10.442C26.7726 10.3644 26.7726 10.2868 26.788 10.2092C26.8188 10.2092 26.8496 10.2092 26.8804 10.2092C26.8804 10.3179 26.9266 10.4265 26.7726 10.4575C26.7726 10.504 26.7726 10.5351 26.7726 10.5816C26.8188 10.6127 26.8804 10.6282 26.9112 10.6747C26.9573 10.7213 26.9573 10.7988 26.8804 10.8144C26.8496 10.8144 26.8034 10.7833 26.788 10.7523C26.7726 10.6902 26.788 10.6437 26.7726 10.5816V10.5661ZM26.9573 25.9419H26.8958C26.8958 25.9419 26.9419 25.8798 26.9573 25.8488C26.9727 25.8798 27.0035 25.9109 27.0189 25.9419H26.9573ZM26.8958 11.5591C26.8958 11.5591 26.8958 11.4815 26.865 11.435C26.9112 11.2953 27.0343 11.3264 27.1421 11.3264C27.1883 11.4039 27.2345 11.4815 27.2653 11.5746C27.1883 11.5746 27.0959 11.5746 27.0189 11.5901C26.9727 11.5901 26.9419 11.5591 26.8958 11.5591ZM27.1575 12.4745C27.1575 12.3969 27.1575 12.3038 27.1575 12.2263C27.2037 12.2263 27.2345 12.2263 27.2807 12.2263C27.2807 12.3038 27.2807 12.3969 27.2807 12.4745C27.2499 12.4745 27.2191 12.4745 27.1729 12.4745H27.1575ZM27.527 24.53C27.45 24.53 27.3576 24.53 27.2807 24.53C27.2807 24.4835 27.2807 24.4369 27.2807 24.4059C27.373 24.4059 27.4654 24.4059 27.5578 24.3904C27.5578 24.4369 27.5578 24.4835 27.5424 24.5455L27.527 24.53ZM27.6502 21.97H27.5886H27.527C27.527 21.9234 27.527 21.8924 27.527 21.8458C27.5732 21.8458 27.604 21.8458 27.6502 21.8458C27.6502 21.8924 27.6502 21.9234 27.6502 21.97ZM27.8811 14.5225C27.8811 14.5225 27.8041 14.5225 27.7733 14.5225C27.7733 14.445 27.7733 14.3208 27.8349 14.3208C27.9119 14.3208 27.8965 14.4294 27.8965 14.507L27.8811 14.5225ZM27.8503 1.90849C27.6809 1.92401 27.7733 1.78437 27.7733 1.70679C27.8195 1.70679 27.8503 1.70679 27.8965 1.70679C27.8965 1.78437 27.9581 1.89297 27.8657 1.90849H27.8503ZM28.0197 23.506C28.0197 23.506 28.0966 23.506 28.1428 23.506C28.0966 23.6146 28.0658 23.6146 28.0197 23.506ZM28.3892 21.4579C28.3122 21.4579 28.2198 21.4579 28.1428 21.4579C28.2198 21.3028 28.3122 21.3183 28.3892 21.4579ZM28.3892 21.97C28.3892 21.8769 28.3892 21.7993 28.4046 21.7217C28.4661 21.7217 28.5277 21.7217 28.5893 21.7372C28.6817 21.9699 28.5585 21.9855 28.3738 21.97H28.3892Z" fill="#F0E74D"/>
<path d="M18.9522 31.4966C18.9522 31.3104 19.0138 31.2018 19.2139 31.2328C19.2139 31.2794 19.2139 31.3259 19.2139 31.3725L21.8312 28.5176L20.0299 16.9431L11.8701 17.9206L16.4735 34.3514L19.0907 31.4811C19.0907 31.4811 18.983 31.4811 18.9368 31.4811L18.9522 31.4966ZM19.3371 30.2088C19.2601 30.2088 19.1677 30.2088 19.0907 30.2088C19.0907 30.1002 19.0907 30.0071 19.2139 29.9606C19.2601 30.0071 19.3063 30.0381 19.3525 30.0847C19.3525 30.1312 19.3525 30.1623 19.3525 30.2088H19.3371ZM19.9683 30.0692C19.9683 30.0692 19.9683 30.0071 19.9683 29.9606C20.0761 29.9451 20.1992 29.914 20.2146 30.0847C20.1377 30.0847 20.0453 30.0847 19.9683 30.0847V30.0692ZM20.7227 27.385C20.7227 27.385 20.7997 27.385 20.8459 27.385C20.8459 27.4626 20.8459 27.5557 20.8459 27.6333H20.7843H20.7227C20.7227 27.5402 20.7227 27.4626 20.7227 27.385ZM20.3378 23.2734C20.3378 23.2734 20.4148 23.2734 20.461 23.2734C20.461 23.351 20.461 23.4441 20.461 23.5217C20.3686 23.5217 20.2762 23.5217 20.1838 23.5217C20.1069 23.5217 20.0761 23.4751 20.0607 23.4131C20.1685 23.4131 20.2608 23.3665 20.3224 23.2579L20.3378 23.2734ZM20.0761 29.5572H20.0145H19.9529C19.9837 29.4486 20.0299 29.4486 20.0761 29.5572ZM19.5064 28.9676L19.5526 28.9986H19.5064V28.9676ZM19.0753 23.9251C19.0753 23.9251 19.0753 23.8475 19.0753 23.8165C19.1523 23.8165 19.2447 23.8165 19.3217 23.8165C19.3217 23.8165 19.3217 23.894 19.3217 23.9406C19.3217 23.9406 19.2293 24.0337 19.1831 24.0802C19.1369 24.0802 19.1061 24.0802 19.06 24.0802C19.06 24.0337 19.06 24.0026 19.06 23.9561L19.0753 23.9251ZM12.6245 20.2014C12.5937 20.1858 12.5629 20.1703 12.5321 20.1548C12.6245 20.0772 12.6091 20.1548 12.6245 20.2014ZM13.4559 19.6893H13.3943C13.3943 19.6893 13.4097 19.5963 13.4405 19.5963C13.5175 19.5807 13.5175 19.6428 13.5175 19.6893H13.4559ZM14.0255 21.334C13.9793 21.2564 13.9178 21.1788 13.8716 21.1013C14.005 21.0082 14.1025 21.0547 14.1641 21.2409C14.1641 21.2409 14.0717 21.303 14.0255 21.3495V21.334ZM16.0424 30.7208C15.9654 30.7208 15.873 30.7208 15.796 30.7208C15.796 30.6743 15.796 30.6432 15.796 30.5967C15.873 30.5967 15.9654 30.5967 16.0424 30.5967C16.0424 30.6432 16.0424 30.6898 16.0424 30.7363V30.7208ZM17.6897 29.433C17.6897 29.5106 17.6897 29.6037 17.6897 29.6813C17.6435 29.6813 17.6127 29.6813 17.5666 29.6813C17.5666 29.5882 17.5666 29.5106 17.5666 29.4175C17.6127 29.4175 17.6589 29.4175 17.6897 29.4175V29.433ZM16.7968 25.3215C16.7968 25.3215 16.7198 25.337 16.6736 25.3525C16.6274 25.3525 16.5966 25.3525 16.5504 25.337C16.5504 25.2904 16.5504 25.2594 16.5504 25.2128C16.6274 25.2128 16.7198 25.2128 16.7968 25.2128C16.7968 25.2439 16.7968 25.2904 16.7968 25.3215ZM17.3048 32.6447C17.3048 32.6447 17.3818 32.6447 17.428 32.6447C17.3818 32.7533 17.351 32.7533 17.3048 32.6447ZM17.6897 30.9846C17.6127 30.9846 17.5204 30.9846 17.4434 30.9536C17.4434 30.9225 17.4434 30.907 17.4434 30.876C17.5204 30.876 17.6127 30.8449 17.6897 30.8449C17.6897 30.8449 17.6897 30.938 17.6897 30.9846ZM18.5673 23.1648C18.5673 23.1648 18.5673 23.2424 18.5673 23.2889C18.4903 23.2889 18.3979 23.2889 18.321 23.2889C18.321 23.2424 18.321 23.1958 18.321 23.1648C18.3979 23.1648 18.4903 23.1648 18.5673 23.1648C18.5673 23.0872 18.5673 22.9941 18.5673 22.9166C18.6751 22.9631 18.6905 23.0562 18.6905 23.1648C18.6443 23.1648 18.6135 23.1648 18.5673 23.1648Z" fill="#F0E74D"/>
<path d="M7.22069 9.09242L6.10352e-05 11.0318L3.35634 18.7741C3.35634 18.7741 3.37174 18.712 3.38714 18.712C3.44872 18.6965 3.49491 18.712 3.5103 18.7896C3.5103 18.8206 3.47951 18.8671 3.46411 18.8827C3.41793 18.8827 3.40253 18.8516 3.38714 18.8206L6.42011 25.8181L12.9171 25.7094L7.22069 9.09242ZM1.26252 13.6695C1.26252 13.6695 1.26252 13.5919 1.26252 13.5609C1.3087 13.5609 1.33949 13.5609 1.38568 13.5609C1.38568 13.6384 1.33949 13.685 1.26252 13.685V13.6695ZM2.97145 11.2335H2.90987C2.90987 11.187 2.90987 11.156 2.90987 11.1094C2.98684 11.1094 3.03303 11.156 3.03303 11.2335H2.97145ZM3.1562 10.9698C3.01764 10.9388 3.00224 10.8457 3.03303 10.7215C3.07922 10.7215 3.12541 10.7215 3.17159 10.7215C3.17159 10.7991 3.17159 10.8767 3.17159 10.9698H3.1562ZM4.29549 12.149C4.20311 12.149 4.15693 12.18 4.17232 12.2731C4.14153 12.3041 4.09534 12.3041 4.04915 12.2731C4.04915 12.2731 4.04915 12.1645 4.04915 12.1179C4.12613 12.0093 4.21851 11.9628 4.35707 11.9783C4.35707 12.0093 4.35707 12.0404 4.37247 12.0714C4.40326 12.0869 4.43405 12.1024 4.46484 12.1179C4.46484 12.149 4.46484 12.1955 4.46484 12.2265C4.41865 12.2265 4.38786 12.2265 4.34167 12.2265C4.34167 12.1955 4.34167 12.149 4.34167 12.1179L4.29549 12.149ZM4.29549 16.6174C4.29549 16.6174 4.29549 16.5398 4.29549 16.4933C4.37247 16.4933 4.46484 16.4933 4.54182 16.4933C4.49563 16.6174 4.40326 16.6174 4.29549 16.6174ZM6.066 19.9532C6.066 19.9532 6.14298 19.9532 6.18917 19.9532C6.14298 20.0773 6.11219 20.0463 6.066 19.9532ZM6.97436 12.7075C6.97436 12.7075 6.97436 12.6765 6.95896 12.661C7.00515 12.661 7.03594 12.692 7.02054 12.723C7.02054 12.723 6.98975 12.723 6.97436 12.723V12.7075ZM7.20529 15.7175C7.20529 15.7175 7.11292 15.6244 7.08213 15.5779C7.08213 15.5468 7.08213 15.5003 7.08213 15.4693C7.25148 15.4537 7.34385 15.5313 7.32846 15.7175C7.29767 15.7175 7.25148 15.7175 7.22069 15.7175H7.20529ZM7.31306 25.4612C7.31306 25.3681 7.32846 25.244 7.46702 25.2595C7.5594 25.2595 7.55939 25.3681 7.55939 25.4612C7.46702 25.4612 7.39004 25.4612 7.29767 25.4612H7.31306ZM9.08358 22.0013C9.08358 21.9237 9.08358 21.8461 9.08358 21.7685C9.11437 21.7685 9.14516 21.7685 9.17595 21.7685C9.17595 21.8461 9.19135 21.9237 9.20675 22.0168H9.08358V22.0013ZM11.4853 24.7009C11.4853 24.7009 11.4853 24.7785 11.4853 24.8096C11.3776 24.763 11.3776 24.732 11.4853 24.7009Z" fill="#F0E74D"/>
<path d="M98.2405 32.1938C98.2405 32.1938 98.2252 32.0547 98.2099 31.9774C98.3632 32.0238 98.3019 32.1011 98.2405 32.1938Z" fill="#F0E74D"/>
<path d="M125.938 32.1172C125.938 32.1172 126.09 32.1017 126.151 32.0862C126.151 32.1326 126.151 32.1635 126.151 32.2099C126.075 32.2099 125.998 32.1944 125.938 32.179C125.938 32.1635 125.938 32.1326 125.938 32.1172Z" fill="#F0E74D"/>
<path d="M164.273 32.1947C164.273 32.1947 164.365 32.1947 164.35 32.2565C164.35 32.2719 164.304 32.2873 164.273 32.3028C164.273 32.2719 164.273 32.2256 164.273 32.1947Z" fill="#F0E74D"/>
<path d="M101.135 31.9769H101.089H101.043C101.043 31.9306 101.043 31.8843 101.104 31.8998C101.12 31.8998 101.135 31.946 101.135 31.9769Z" fill="#F0E74D"/>
<path d="M56.21 39.5802C56.21 39.5802 56.21 39.6113 56.21 39.6269C56.195 39.8292 56.21 39.7358 56.21 39.5802Z" fill="#F0E74D"/>
<path d="M80.9822 40.9142L79.9661 41.6124L79.4119 41.4573L79.1039 41.7676L77.7645 41.69L75.9324 41.5348L75.4243 41.2555L74.0541 41.0073L73.623 40.7746L73.5769 40.4953L72.8686 40.4332L72.8225 39.8747L72.2682 40.0143L71.714 39.8902L70.821 39.2696L70.0974 38.8507L69.4046 38.1369L68.8965 37.7335L67.9574 36.1665L67.0644 35.8717L66.9874 35.2666L66.7103 34.7546L66.4794 34.0098L65.3401 32.4428L65.2477 30.7361L65.1246 30.674L65.3555 30.5654L65.571 30.7051L66.2639 30.3327L67.0644 30.5344C67.28 30.3172 67.3877 30.1465 67.4339 30.0069L67.7418 30.2551L68.1575 29.9603L68.2807 29.9138L69.1737 30.3016L70.0666 29.3397C70.0666 29.3397 70.1282 29.2931 70.159 29.2931C70.2975 29.1845 70.4823 29.138 70.6978 29.107L70.898 29.0759L71.2213 28.9518L72.145 28.6105L72.4376 28.2846C73.0534 28.145 73.5768 27.9123 73.9771 27.6175L74.1773 27.5089L75.178 27.3072L76.7022 25.4453C77.0409 25.0264 77.241 24.5454 77.3026 24.0024L77.3334 23.8007C77.0871 22.7767 76.3173 21.8768 75.0087 21.0855L74.67 20.7597H73.8078L72.6685 20.4028L69.8973 19.6891V19.8132L69.5124 19.8598L69.3738 19.6581L67.9266 19.8287L66.4486 19.7822L63.4156 20.108L61.1524 20.077L59.6283 20.4493L58.4582 20.3873L57.7962 20.7131L57.4882 20.0459L56.3951 20.1701C55.533 20.2632 54.9941 20.651 54.7632 21.3027L53.393 21.4578L51.9458 21.7526L51.0682 22.4819C50.7295 22.9628 50.5601 23.3818 50.6063 23.7541C50.6371 24.173 50.8835 24.5299 51.3453 24.8402C51.8688 25.0109 52.2845 25.2281 52.5462 25.5074C52.6232 25.5539 52.6848 25.6315 52.7309 25.6936L52.7771 25.6315L53.6085 24.4834L54.5938 24.3748L54.9171 25.7091L54.7786 26.4693L55.3174 28.0519V28.4708L55.1635 28.657L55.3482 29.3397L55.1019 30.2086C55.4098 30.6275 55.5638 30.8912 55.5638 30.9378C55.5638 30.9843 55.456 31.2326 55.2251 31.636L55.2713 32.0859C55.302 32.4117 55.3174 32.6445 55.3174 32.7996C55.3482 33.0634 55.4098 33.3116 55.5022 33.5133C55.302 33.9788 55.2097 34.3512 55.2251 34.6149C55.2559 34.8166 55.3482 34.9718 55.5176 35.127C55.4098 35.4683 55.379 35.7476 55.379 35.9648C55.379 36.1355 55.4406 36.3216 55.5484 36.5233L56.2104 38.5559L56.4105 38.9593L56.3182 41.1625C58.0425 40.9608 58.8893 40.5108 58.8123 39.7971L58.7815 39.4713L59.0124 37.8577L58.8893 37.5318L58.3966 35.127L58.335 34.3046C58.2888 33.8081 58.2734 33.4513 58.2426 33.2341C58.1965 32.6134 58.2118 31.9773 58.335 31.3567L58.5198 30.2551L58.2734 29.2001L58.6275 28.5794C58.3196 28.2381 58.1503 27.8347 58.1195 27.4003C58.1195 27.152 58.1195 26.9038 58.1657 26.64L58.1041 24.5765C58.1041 24.5765 58.1041 24.4989 58.1041 24.4058C58.0579 24.3592 58.0579 24.3127 58.0425 24.2506C58.0425 24.142 58.0425 23.9869 58.0887 23.7541L58.3812 23.7076L58.9662 23.3973L59.305 23.4749L59.9054 23.1335L60.4135 23.1801L61.0601 23.0249L61.7529 23.149L63.0769 22.7767H64.3394L64.6935 22.6681L65.2785 22.7146L65.4325 22.6681L65.5556 22.6991L67.8804 22.5905H68.2961L69.1121 22.4974L69.6817 22.9163L70.2514 22.8698L71.1289 23.1025L71.6524 23.0404C71.9603 23.087 72.2066 23.1801 72.376 23.3197L72.6223 23.4593L73.038 23.4904L74.1157 24.2817C74.2543 24.3748 74.3466 24.4834 74.3466 24.592C74.3466 24.6695 74.2235 24.8092 73.9617 24.9643L72.8225 25.4763L72.4068 25.8487L72.2528 25.8797L71.8987 26.1125L71.5908 26.2676C71.0827 26.4383 70.7132 26.5779 70.5131 26.6866L70.3129 26.7952L70.1436 26.7641L69.0197 27.0124L68.1421 27.2761L67.6341 27.5864C67.049 27.7881 66.3254 27.9433 65.4633 28.0364C64.8166 28.114 64.324 28.145 64.0007 28.114L64.0315 28.3622C63.354 28.5174 62.8152 28.6105 62.4149 28.6725C61.9992 28.7191 61.7837 28.6725 61.7375 28.5019L61.1678 28.5639C61.0755 28.4863 61.0293 28.4088 61.0293 28.3312V28.2536L59.9054 28.5019C59.5513 28.9053 59.3203 29.4018 59.2126 29.9758L58.8893 30.4258C59.0432 31.2326 59.2126 31.667 59.3973 31.7136C59.5975 31.7601 59.7822 31.7601 59.9362 31.7601C60.0901 31.7601 60.2595 31.698 60.4135 31.6205L60.5366 31.5739H60.8291L61.2756 31.9773L61.5066 32.1635L62.4149 33.7926L63.2617 34.9718C63.4464 35.3907 63.7697 35.8251 64.247 36.2596C64.3702 36.8647 64.6627 37.3922 65.14 37.8422C65.5864 38.3076 66.0483 38.7421 66.4948 39.1455C66.5564 39.192 66.6795 39.3782 66.8489 39.704C67.0182 40.0298 67.203 40.2315 67.4185 40.2936L67.5725 40.3401L67.8034 40.8366L68.2653 40.9608C68.5886 41.1935 68.9427 41.4262 69.3122 41.6434C69.6047 41.7986 69.8357 41.9537 70.0358 42.0624L70.2052 42.4502L71.8987 42.9312C71.8987 42.9312 71.9603 43.0243 72.0373 43.1329C72.0989 43.2415 72.1758 43.3346 72.222 43.4432H72.4838L72.8686 44.1414L73.777 43.6604C74.0079 43.8466 74.1927 44.0328 74.3158 44.25L75.2242 43.9397L75.4397 43.9087L76.4713 44.4517L77.3488 44.4052L78.288 44.5448L78.796 44.1259L79.0116 44.2655C80.5357 43.7535 81.3209 43.3656 81.3979 43.1019L81.4287 42.8847C81.5519 42.4813 81.3979 41.8607 80.9822 40.9608V40.9142ZM76.0094 25.647C76.0094 25.647 76.0094 25.7091 76.0094 25.7401C75.9632 25.7401 75.917 25.7401 75.9478 25.678C75.9478 25.678 75.994 25.647 76.0094 25.647ZM57.011 29.0759C57.011 28.9984 57.011 28.9208 57.011 28.8432C57.0572 28.8742 57.1034 28.9053 57.1495 28.9518C57.1187 29.0139 57.088 29.0759 57.011 29.0759ZM57.7038 24.2351C57.7038 24.2351 57.6422 24.1886 57.6114 24.1886C57.6422 24.1886 57.6576 24.1575 57.7038 24.142V24.2351ZM60.0747 21.7216C60.0747 21.7216 60.0286 21.6751 59.9824 21.6751C60.0286 21.6751 60.044 21.644 60.0747 21.6285V21.7371V21.7216ZM60.1979 21.0234H60.0901V20.7907H60.1979V21.0234ZM60.5212 20.8993H60.475C60.475 20.8217 60.475 20.7597 60.4442 20.6821C60.5828 20.7131 60.552 20.8062 60.5212 20.8993ZM61.5681 22.2802V22.1716C61.5681 22.1716 61.6451 22.1716 61.6759 22.1716C61.6759 22.2336 61.6451 22.2957 61.5681 22.2802ZM63.6004 21.4734C63.5234 21.4734 63.4618 21.4734 63.3694 21.4734V21.3803C63.4464 21.3803 63.5234 21.3803 63.6004 21.3803V21.5044V21.4734ZM64.4779 21.6751C64.4164 21.5975 64.3702 21.5199 64.5241 21.4734L64.4779 21.6751ZM66.2023 21.7061C66.2023 21.7061 66.2331 21.6595 66.2485 21.6285L66.2946 21.6751C66.2946 21.6751 66.2485 21.7061 66.2177 21.7216L66.2023 21.7061ZM66.3408 22.2491C66.3408 22.2491 66.31 22.2491 66.2946 22.2181C66.3254 22.2181 66.3408 22.1871 66.3562 22.1716L66.4024 22.2181C66.4024 22.2181 66.3562 22.2491 66.3408 22.2491ZM70.667 22.7456L70.6209 22.7146C70.6209 22.7146 70.667 22.6215 70.7132 22.606C70.7132 22.606 70.7132 22.7301 70.6516 22.7456H70.667ZM72.7609 22.637H72.6531C72.6531 22.637 72.6069 22.606 72.5607 22.606C72.5607 22.5594 72.5299 22.5439 72.5145 22.4974V22.3733H72.5607H72.6069C72.6069 22.3733 72.6069 22.4664 72.6531 22.4819C72.7147 22.4819 72.7455 22.4508 72.7455 22.3888H72.7917H72.8379V22.4198C72.8686 22.5284 72.8071 22.5905 72.7147 22.6525L72.7609 22.637ZM73.6538 23.4128C73.5769 23.3662 73.5461 23.3197 73.5769 23.2421C73.5769 23.2421 73.623 23.2111 73.623 23.2421C73.7 23.2887 73.6692 23.3662 73.6692 23.4283L73.6538 23.4128ZM74.7777 25.2436C74.8085 25.3212 74.7315 25.3677 74.6853 25.3833C74.593 25.3367 74.5776 25.2436 74.5776 25.1505C74.6546 25.1505 74.7469 25.104 74.7777 25.2281V25.2436ZM69.2506 28.0209V28.145C69.1737 28.145 69.1275 28.0985 69.1275 28.0209H69.2506ZM60.4288 28.9363C60.3211 28.8897 60.3057 28.7967 60.3057 28.7036C60.3827 28.7036 60.4442 28.7346 60.5212 28.7501V28.7967C60.5212 28.7967 60.475 28.8897 60.4288 28.9363ZM63.1539 33.8702C63.1539 33.8702 63.1539 33.7771 63.2155 33.7926C63.2155 33.7926 63.2463 33.8392 63.2617 33.8702H63.1539ZM64.6165 29.4018C64.4933 29.3552 64.5087 29.2621 64.5241 29.169C64.6011 29.169 64.6781 29.169 64.7243 29.2621C64.6935 29.3087 64.6627 29.3397 64.6165 29.4018ZM72.299 40.8677C72.2066 40.8677 72.0989 40.8366 72.1296 40.728C72.1296 40.6504 72.2374 40.6504 72.3144 40.6504C72.3144 40.728 72.3144 40.7901 72.3144 40.8832L72.299 40.8677ZM74.6853 42.6985H74.5622C74.5622 42.6209 74.6084 42.5744 74.6853 42.5899V42.6985ZM76.0402 41.8917C75.917 41.9227 75.7784 41.8917 75.7015 42.0158C75.7015 42.0158 75.6245 41.9382 75.5783 41.9072C75.5783 41.8607 75.5783 41.8451 75.6091 41.7986C75.6707 41.7676 75.7938 41.7986 75.7938 41.6745C75.8246 41.6279 75.8246 41.5969 75.84 41.5659C75.8708 41.5659 75.9016 41.5659 75.9478 41.5659C75.9478 41.6745 75.917 41.7831 76.071 41.7986C76.071 41.8296 76.071 41.8607 76.071 41.8917H76.0402ZM77.0563 44.2966C77.0563 44.2966 76.9947 44.2966 76.9793 44.25C76.9793 44.2035 77.0255 44.2035 77.0563 44.2035C77.0563 44.2345 77.0563 44.2655 77.0563 44.2966ZM76.9331 43.8466C77.0717 43.8777 77.0563 43.9863 77.0563 44.0794C76.9485 44.0328 76.9331 43.9552 76.9331 43.8466ZM79.2271 41.7831C79.2271 41.7831 79.2579 41.721 79.2733 41.69C79.3041 41.721 79.3195 41.752 79.3195 41.7831H79.2271ZM80.4742 42.714C80.3972 42.714 80.3202 42.714 80.2432 42.683V42.6054C80.3356 42.5744 80.4434 42.5588 80.4742 42.6985V42.714ZM81.1362 42.1399H81.013C80.8283 42.1865 80.7821 42.0934 80.8129 41.9227C80.8437 41.9227 80.8591 41.9227 80.8899 41.9227C80.9206 41.9693 80.9514 42.0158 81.0284 42.0003C81.0746 42.0003 81.09 42.0313 81.1362 42.0468V42.1554V42.1399Z" fill="#F0E74D"/>
<path d="M97.5942 40.542L96.8706 40.1697L96.7166 39.8438L96.0392 39.1457L95.1001 37.6251L94.746 37.2528L94.8383 36.8028L93.9454 35.484L93.8838 34.7548L93.3757 34.01L93.3295 33.0636L93.3757 32.8309L94.438 32.5826V32.7378L95.331 32.6602L95.7467 32.4585L96.6858 32.5826L97.8559 31.7603L98.4563 31.9775C98.872 31.7448 99.0876 31.45 99.0876 31.0311C99.0876 30.9069 99.0876 30.7518 99.026 30.5346L97.8097 30.4415C97.4094 30.2398 97.1015 30.1467 96.8552 30.1002V30.1312H96.7474C96.7474 30.1312 96.7936 30.1001 96.7936 30.0846C96.7474 30.0846 96.655 30.0381 96.5935 30.0381C96.2086 30.0381 95.9314 30.0846 95.7467 30.2088C95.5773 30.3484 95.408 30.3949 95.2386 30.3949C95.1309 30.3949 94.9769 30.3639 94.746 30.3174H93.5297C93.3603 30.3639 93.114 30.4105 92.7445 30.4415L92.5136 30.1157L92.3288 29.914C92.3288 29.914 92.3904 29.6812 92.452 29.4485L92.3904 28.8434L92.4212 28.0211L92.0979 27.7418L92.2672 27.447L91.559 26.5471L91.4974 25.8955L91.1741 24.5301L90.5737 23.6302L90.3582 22.6062C90.3582 22.3579 90.2812 22.0942 90.158 21.8614H90.0964V21.7528C90.0041 21.5511 89.8963 21.3494 89.7423 21.1633C89.6653 20.9926 89.5576 20.8374 89.4344 20.6668L89.3266 19.5807L88.2027 18.9756L87.3252 18.0757L86.5246 18.7273C86.1089 18.7584 85.5701 19.1618 84.8926 19.9686L85.0774 20.5737L84.8773 20.7443C84.8773 20.9616 84.5078 21.4425 83.7995 22.1873H83.5224L83.4916 23.2268L83.1683 23.3664H82.9528L82.1522 24.8404L81.8597 24.887L81.6441 25.2438L81.0591 25.3835C81.0129 26.0972 80.705 26.6557 80.12 27.0591C80.0122 27.2608 79.9506 27.478 79.9506 27.7263V27.959C79.7197 28.0366 79.5657 28.1142 79.4887 28.1762L78.6112 28.6262L78.5034 29.402C78.0877 29.6037 77.8106 29.914 77.6566 30.3949L77.2409 30.6122L75.6552 30.488L75.6244 31.2638L74.7468 31.962C74.8392 32.3499 75.2395 32.8774 75.4858 33.2343C75.4088 33.6222 75.1471 33.8859 74.7006 34.0721C74.7006 34.46 74.5313 34.7858 74.2234 35.003L73.9308 35.2513L72.6838 35.5771V36.3994L72.5452 36.6321L72.6068 37.2372L72.2373 38.3233C72.73 38.6492 73.238 38.7733 73.7461 38.6957C73.9155 38.6957 74.131 38.6181 74.3927 38.5405L75.8399 37.4545L76.5173 36.0891L78.2109 33.979L78.4264 33.7152H78.4572L79.1808 33.9169L79.5811 34.3669L80.6588 33.8704H80.8743C81.1053 33.979 81.4902 34.0256 82.0136 34.0256L82.5371 34.2428L83.1991 33.8704H83.3531L84.2922 33.9945L85.1698 33.5446H85.4931C85.6316 33.5756 85.8472 33.5911 86.1551 33.5911C86.4168 33.5911 86.6324 33.5911 86.7555 33.5446L86.9557 33.9945L87.6177 33.5756L87.8179 33.7928L88.7724 33.2653L89.6192 33.3894L90.1272 34.0876L90.2658 35.2513L90.6199 35.7012L91.4205 37.6251L91.9439 38.1216L91.9901 38.7733L92.3134 39.0681V39.3939L93.0062 40.1697L93.5143 41.1161L93.93 41.3333L94.3919 42.1556H95.0385L95.5619 42.559H96.0084L97.0553 43.0711L97.548 43.3038C97.548 43.3038 97.6558 43.2572 97.7019 43.2417C98.4717 42.9624 98.872 42.5125 98.9182 41.8764L97.8405 41.2247L97.5788 40.5576L97.5942 40.542ZM75.686 32.7378C75.686 32.7378 75.686 32.5981 75.686 32.5206C75.7168 32.5206 75.7322 32.5206 75.7629 32.5206C75.7629 32.6137 75.8091 32.7067 75.6706 32.7378H75.686ZM79.0884 29.7743C79.0884 29.7743 78.9807 29.8364 78.9345 29.8674H78.9037C78.9037 29.7898 78.8729 29.7278 78.8575 29.6502H78.9345C78.9345 29.6502 79.073 29.6502 79.073 29.7588L79.0884 29.7743ZM80.782 33.436C80.705 33.436 80.6434 33.436 80.551 33.436V33.3118C80.628 33.3118 80.6896 33.3118 80.782 33.3118V33.4049V33.436ZM87.3868 20.1703C87.4637 20.2323 87.3868 20.2323 87.3406 20.2478C87.3406 20.2168 87.3714 20.2013 87.3868 20.1703ZM87.2328 21.2874C87.2328 21.2874 87.1866 21.3339 87.1866 21.365C87.1096 21.2874 87.1866 21.3029 87.2328 21.2874ZM86.2013 20.4806C86.2013 20.4806 86.2629 20.5737 86.3091 20.6202C86.3091 20.6512 86.3091 20.6668 86.3091 20.6823L86.0781 20.915C86.0781 20.915 85.9704 20.915 85.9396 20.915C85.8934 20.884 85.8318 20.8529 85.7856 20.8064C85.7548 20.4651 85.7856 20.434 86.2013 20.4806ZM85.7856 24.2508C85.7856 24.1733 85.7856 24.1112 85.7548 24.0181C85.9396 24.0646 85.878 24.1577 85.7856 24.2508ZM81.5672 31.8068C81.5672 31.8068 81.4286 31.8068 81.3516 31.8379V31.7448C81.3516 31.7448 81.4902 31.7448 81.5672 31.7448V31.7913V31.8068ZM81.6903 33.5446C81.6903 33.5446 81.6133 33.5135 81.6133 33.498C81.6133 33.436 81.6595 33.436 81.7057 33.436C81.7057 33.4825 81.7057 33.498 81.7057 33.5446H81.6903ZM82.1214 32.7378H82.0598C82.0598 32.6602 82.0598 32.5981 82.0598 32.505H82.1676C82.1676 32.5826 82.1676 32.6447 82.1368 32.7378H82.1214ZM89.0957 30.7208C88.9879 30.8914 88.7262 31.0621 88.2951 31.2328L87.3714 30.7363L85.9242 30.8914C85.7086 30.8604 85.3853 30.8449 84.9388 30.8449C84.5847 30.8449 84.3384 30.8449 84.169 30.8914L83.9997 30.8449C83.7688 30.7363 83.5532 30.6897 83.3531 30.6897C83.1991 30.6897 83.0298 30.7363 82.8604 30.8139H82.7064C82.3831 30.8139 81.9674 30.7363 81.4748 30.5811H81.1207L81.6595 30.0536L81.9675 29.2313C82.6603 28.8744 83.0759 28.2848 83.2299 27.4625L83.9689 27.1367C83.9689 27.1367 83.9227 27.0281 84.0305 26.9971C84.0305 27.0436 84.0305 27.0746 84.0305 27.1212L84.1844 27.0591L84.3692 26.3299L85.2006 25.5852L85.5393 24.887L86.54 23.6457L86.7094 23.3509L86.8325 23.5216L87.0327 23.5992L87.3868 24.1267L87.4791 25.6007H87.7563L87.8332 25.7713L87.941 26.4695L88.4029 27.1832L88.5568 28.8744L88.8494 29.0296C88.8494 29.4175 88.9417 29.6967 89.1573 29.8984L88.6492 30.3018L89.0649 30.7208H89.0957ZM89.4806 22.1718H89.6192C89.6192 22.2493 89.573 22.2959 89.496 22.2959C89.496 22.2493 89.496 22.2183 89.496 22.1718H89.4806ZM89.6038 27.3384C89.6038 27.3384 89.6499 27.1988 89.6499 27.1212C89.6961 27.1988 89.7731 27.3074 89.6038 27.3384ZM90.2966 24.0026C90.1888 24.0026 90.081 24.0026 90.1118 23.8629C90.1118 23.7854 90.2196 23.7854 90.2966 23.7854V24.0181V24.0026ZM91.1587 32.443C91.0664 32.4119 91.0818 32.3344 91.0818 32.2723C91.1741 32.2723 91.2049 32.3189 91.1741 32.412C91.1741 32.412 91.1741 32.443 91.1433 32.443H91.1587ZM91.3897 32.1172C91.3897 32.1172 91.3589 32.1172 91.3435 32.0861C91.3435 32.0861 91.3743 32.0551 91.3897 32.0551C91.4051 32.0551 91.4205 32.0551 91.4359 32.0861C91.4359 32.0861 91.4051 32.1172 91.3897 32.1172ZM93.2526 39.1457C93.2526 39.1457 93.2987 39.0836 93.2987 39.0526C93.2987 39.0836 93.3449 39.0991 93.3449 39.1457H93.2372H93.2526ZM95.8391 40.2938C95.7313 40.2472 95.7313 40.1542 95.7313 40.0611C95.9006 40.0611 95.8545 40.1852 95.8391 40.2938Z" fill="#F0E74D"/>
<path d="M119.38 25.5385V24.9333L117.871 24.0335L117.363 23.2422H116.67L116.224 22.9163L115.916 22.1095L115.1 22.2647C114.622 21.9078 114.13 21.7372 113.652 21.7372L113.452 21.4424L112.559 21.3648L111.651 20.7907H110.789L110.635 20.5425H109.403L108.341 20.2632L107.771 20.4184L107.171 19.9684L104.938 19.6426L103.722 19.565H102.09C101.828 19.4099 101.582 19.3323 101.32 19.3323H100.828L99.9656 19.565L100.089 19.4254L99.8117 19.3788L99.6423 19.3323H99.319C98.7955 19.4719 98.2875 19.596 97.7948 19.7202C97.2867 19.8598 96.9942 20.1391 96.8711 20.6201L96.4092 21.1321C96.4092 21.7527 96.5477 22.3112 96.8557 22.7767L97.5639 23.8162L98.6878 23.2577H98.7186L99.5499 23.1336L100.289 22.7146H101.274V22.544L101.767 22.7146L102.367 22.4974L102.491 22.5905L103.368 22.3733L104.138 22.6215L104.877 22.5285L105.847 22.6681C106.062 22.8077 106.262 22.8853 106.447 22.9163H106.493C106.632 22.9629 106.74 22.9784 106.878 22.9784C106.925 22.9784 107.001 22.9784 107.078 22.9319H107.248L107.802 23.2577H108.449L109.049 23.6301L109.988 23.568L111.112 24.2817L111.774 23.8783C112.344 24.111 112.96 24.4058 113.637 24.8247L115.13 25.4143L115.885 26.066L116.208 26.1436L116.531 26.5159L116.716 27.0434L116.67 27.3693L116.378 27.571L116.331 27.7882C116.023 27.8968 115.839 28.0209 115.746 28.145C115.716 28.0364 115.669 27.9899 115.592 27.9899C115.515 27.9899 115.408 28.0364 115.269 28.145L114.884 28.8588C114.73 28.8588 114.576 28.8588 114.468 28.8122L114.176 29.1846L113.591 29.4173L113.545 29.6345H112.652C112.205 29.9603 111.713 30.131 111.174 30.131H110.881L110.835 30.2086H110.512L109.85 30.6275L109.311 30.7051C108.849 30.8913 108.479 31.0464 108.172 31.1706V31.2792H108.079V31.2326C107.941 31.2792 107.848 31.3257 107.756 31.3723C107.602 31.3257 107.417 31.2016 107.232 31.0154L106.647 31.5119C106.139 31.5429 105.677 31.6981 105.293 32.0084H104.461V32.117C104.461 32.117 104.353 32.117 104.307 32.117L104.199 32.1791L104.153 31.8067L104.292 31.4343L104.199 30.643L104.538 30.0379L104.338 29.4483L104.954 29.0294L104.985 28.0054L105.57 27.8347C105.4 27.633 105.262 27.4158 105.185 27.2296L105.154 27.1986C105.062 26.9814 105.015 26.7797 105.015 26.5625V26.3608C105.431 25.7246 105.616 25.2281 105.631 24.8713C105.662 23.9869 105.077 23.5525 103.907 23.5525H103.614L102.721 23.599C102.398 23.7852 102.167 24.0645 102.044 24.4213L102.09 24.5455L101.982 24.623L101.444 25.585L101.397 27.8037L101.259 28.4709L101.351 30.0379L101.105 30.2707L101.059 30.643C101.059 30.643 101.059 30.7051 101.059 30.7361C101.059 30.7827 101.059 30.7982 101.059 30.8447H101.028L100.874 32.0084L100.628 32.5204V32.9393L97.5639 33.141L98.9033 35.1115C99.242 35.1891 99.7963 35.2666 100.535 35.3287L100.489 35.6545L100.597 36.151L100.181 36.601L100.72 37.6405L100.674 39.192L101.151 40.8832L102.198 42.1555C102.198 42.1555 102.198 42.1245 102.198 42.1089C102.152 41.7831 102.383 41.9228 102.521 41.9072C102.66 42.0779 102.521 42.2331 102.46 42.3727L103.537 42.0314C104.554 41.7055 105.077 41.2246 105.077 40.6039C105.108 39.9368 104.831 39.5799 104.261 39.4868L104.107 39.13L104.138 38.1835L103.845 36.8337L104.153 35.8097L103.738 35.0804L104.015 35.0029L104.4 34.7701L104.923 34.6305L105.216 34.4753H105.462C105.693 34.4753 105.955 34.5219 106.186 34.6305L107.063 33.9788C107.525 33.9323 107.864 33.9013 108.048 33.9013L108.988 33.6996C108.988 33.6996 109.018 33.653 109.034 33.653H109.142V33.6841L109.834 33.5444L110.342 33.1255H111.282L111.743 32.7997C111.959 32.7221 112.128 32.629 112.236 32.5204L112.452 32.4738L112.898 32.1791H113.714L114.299 31.8843C114.761 31.8532 115.192 31.6205 115.623 31.155C116.47 30.9533 117.07 30.6896 117.409 30.3327C117.702 30.3017 117.917 30.1155 118.071 29.7586L118.21 29.7121C118.533 29.5725 118.81 29.4794 119.026 29.4173V28.8898L119.795 28.2226L120.226 26.9504L119.487 25.6315L119.38 25.5385ZM97.9796 22.6681C97.9796 22.6681 97.9796 22.7302 97.9796 22.7767H97.9334H97.8872C97.8872 22.7146 97.8872 22.6371 97.8872 22.544C97.9796 22.544 98.0103 22.606 98.0103 22.6836L97.9796 22.6681ZM97.0712 22.0785C97.0712 22.0785 97.1482 22.0785 97.1944 22.0785C97.256 22.0785 97.3021 22.1095 97.3175 22.2181C97.2559 22.2802 97.179 22.3268 97.0866 22.3268V22.094L97.0712 22.0785ZM100.012 19.6581C100.012 19.6581 99.9656 19.6271 99.9348 19.6116C99.9656 19.6116 99.981 19.5805 100.012 19.565V19.6736V19.6581ZM100.135 20.7131V20.4804C100.135 20.4804 100.243 20.527 100.274 20.589C100.243 20.6511 100.212 20.6976 100.135 20.7131ZM101.028 20.9459C101.028 20.9459 100.889 20.9459 100.812 20.9148V20.8373C100.812 20.8373 100.951 20.8373 101.043 20.8062C101.043 20.8528 101.043 20.8993 101.043 20.9459H101.028ZM108.372 21.1786H108.156L108.202 20.9769H108.341L108.387 21.1786H108.372ZM111.158 21.8923H111.112C111.112 21.8923 111.112 21.8147 111.143 21.7992C111.205 21.7992 111.205 21.8458 111.205 21.8768H111.158V21.8923ZM111.312 22.9319H111.205C111.205 22.8543 111.205 22.7922 111.205 22.6991H111.297V22.9319H111.312ZM112.667 23.3818C112.667 23.3818 112.621 23.3508 112.59 23.3353C112.621 23.3353 112.636 23.3042 112.667 23.2887V23.3973V23.3818ZM104.754 24.1886H104.861C104.861 24.2662 104.861 24.3282 104.861 24.4213H104.769V24.1886H104.754ZM98.9495 34.0409H98.9033C98.9033 34.0409 98.9033 33.9013 98.8725 33.8392C98.9341 33.8392 99.0111 33.8392 99.0881 33.8392C99.0881 33.9478 99.0111 33.9788 98.9495 34.0564V34.0409ZM101.105 39.4558H101.028C101.028 39.3782 101.028 39.3006 101.028 39.2231H101.151C101.151 39.3006 101.151 39.3627 101.12 39.4558H101.105ZM101.043 36.9423C101.043 36.9423 100.951 36.9423 100.905 36.9423C100.905 36.8958 100.905 36.8802 100.905 36.8337C100.997 36.8337 101.105 36.8027 101.136 36.9578H101.043V36.9423ZM101.536 36.12C101.536 36.12 101.505 36.0889 101.49 36.0734C101.49 36.0734 101.521 36.0424 101.536 36.0269C101.536 36.0269 101.536 36.0579 101.567 36.0734C101.567 36.0734 101.536 36.12 101.521 36.12H101.536ZM101.767 37.5939C101.767 37.5939 101.767 37.5939 101.736 37.5629L101.767 37.5319C101.767 37.5319 101.798 37.5629 101.813 37.5629C101.813 37.5629 101.782 37.5939 101.767 37.5939ZM102.152 27.7572C102.152 27.7572 102.09 27.7572 102.044 27.8037C102.013 27.8037 101.998 27.8037 101.952 27.7727C101.952 27.633 101.829 27.633 101.721 27.6485C101.721 27.602 101.721 27.571 101.721 27.5244C101.844 27.5244 101.952 27.5244 102.044 27.5244C102.09 27.5244 102.121 27.5244 102.167 27.5244C102.167 27.602 102.167 27.6641 102.167 27.7572H102.152ZM103.892 38.2456C103.892 38.2456 103.953 38.2766 103.953 38.2921C103.953 38.3232 103.953 38.3542 103.922 38.3852C103.892 38.3852 103.876 38.3542 103.861 38.3387C103.83 38.2921 103.861 38.2611 103.892 38.2611V38.2456ZM103.722 32.9393V33.0479C103.722 33.0479 103.63 33.0014 103.614 32.9393C103.661 32.9393 103.676 32.9393 103.722 32.9393ZM103.522 39.1145C103.522 39.1145 103.553 39.1765 103.522 39.2231C103.476 39.2231 103.445 39.2231 103.383 39.2231C103.43 39.192 103.476 39.161 103.522 39.13V39.1145ZM103.06 30.131C103.06 30.131 103.06 30.2241 103.06 30.2707C102.968 30.2707 102.937 30.2241 102.937 30.1465C102.983 30.1465 103.014 30.1465 103.045 30.1465L103.06 30.131ZM102.952 39.9057C102.952 39.9057 103.122 39.9368 103.137 39.8592C103.183 39.7196 103.045 39.704 102.952 39.673C102.906 39.5644 102.922 39.4403 102.952 39.3472C102.983 39.3472 103.014 39.3472 103.029 39.3006C103.029 39.2541 102.983 39.2386 102.952 39.2231C102.983 39.1765 102.999 39.1145 103.045 39.0834C103.214 38.9438 103.26 38.9748 103.291 39.2231C103.337 39.3937 103.383 39.5489 103.522 39.642C103.707 39.7661 103.46 39.9833 103.63 40.1074C103.404 40.2109 103.173 40.1385 102.937 39.8902L102.952 39.9057ZM103.522 38.9748C103.522 38.9748 103.584 38.9748 103.63 38.9748C103.63 39.0369 103.584 39.0834 103.537 39.1145C103.537 39.0679 103.537 39.0214 103.537 38.9748H103.522ZM103.676 41.6124L103.645 41.5659C103.645 41.5659 103.676 41.5349 103.691 41.5194L103.722 41.5659C103.722 41.5659 103.691 41.5969 103.676 41.6124ZM103.738 39.3317C103.738 39.3317 103.738 39.4093 103.738 39.4403L103.614 39.3162C103.614 39.3162 103.691 39.3162 103.738 39.3162V39.3317ZM103.507 33.2496C103.507 33.2496 103.507 33.172 103.507 33.1255C103.568 33.1255 103.645 33.1255 103.707 33.1255C103.707 33.172 103.707 33.2031 103.707 33.2496C103.645 33.2496 103.568 33.2496 103.491 33.2496H103.507ZM104.015 29.0915C104.015 29.0915 103.984 29.0605 103.984 29.0449L104.015 29.0139C104.015 29.0139 104.045 29.0449 104.061 29.0449C104.061 29.0449 104.03 29.0915 104.015 29.0915ZM109.403 30.8447C109.403 30.8447 109.449 30.8758 109.48 30.8913C109.403 30.9533 109.403 30.8913 109.403 30.8447ZM109.65 31.574L109.68 31.5429V31.5895H109.65V31.574ZM112.205 30.3637H112.113C112.113 30.3637 112.113 30.2241 112.113 30.131C112.251 30.162 112.251 30.2707 112.221 30.3637H112.205ZM111.189 31.8687C111.312 31.8067 111.235 31.7757 111.189 31.7291C111.251 31.5895 111.251 31.4498 111.235 31.3102C111.328 31.3102 111.435 31.2636 111.435 31.4188C111.435 31.5274 111.435 31.636 111.435 31.7446C111.405 31.8843 111.389 32.0704 111.205 31.8687H111.189ZM111.328 31.0464C111.328 31.0464 111.328 30.9068 111.328 30.8292C111.466 30.8602 111.451 30.9533 111.451 31.0619C111.405 31.0619 111.374 31.0619 111.343 31.0619L111.328 31.0464ZM111.651 30.7206C111.543 30.7516 111.435 30.7672 111.328 30.7206C111.328 30.6741 111.328 30.643 111.328 30.5965C111.389 30.5965 111.42 30.5499 111.42 30.4879C111.497 30.5344 111.574 30.5655 111.651 30.612V30.7206ZM111.697 30.1931C111.79 30.1931 111.867 30.2396 111.867 30.3637C111.713 30.4103 111.636 30.3638 111.697 30.1931ZM112.021 32.086V31.9774C112.097 32.0239 112.159 32.0549 112.021 32.086ZM112.021 31.8843C111.974 31.7446 111.882 31.667 111.728 31.6205C111.759 31.5895 111.774 31.574 111.79 31.5429C111.959 31.4964 112.113 31.5119 112.236 31.6515C112.277 31.7963 112.2 31.8739 112.005 31.8843H112.021ZM113.144 32.1015H112.929C112.96 31.9618 113.052 31.9774 113.144 31.9929V32.1015ZM115.146 30.0224C115.146 30.0224 115.069 29.9759 115.053 29.9293C115.053 29.9293 115.146 29.9293 115.161 29.9759C115.161 29.9759 115.161 30.0224 115.13 30.0224H115.146ZM117.44 25.104C117.363 25.104 117.301 25.104 117.209 25.104V25.0109C117.209 25.0109 117.27 24.9333 117.317 24.8868H117.44V25.1195V25.104ZM118.718 27.2607C118.718 27.2607 118.687 27.2296 118.672 27.2296C118.702 27.2296 118.718 27.1831 118.748 27.1831C118.748 27.1831 118.779 27.2141 118.795 27.2296C118.764 27.2296 118.748 27.2607 118.718 27.2607Z" fill="#F0E74D"/>
<path d="M99.1799 22.7304C98.3485 23.32 97.979 24.4991 98.3331 25.4611C98.4563 25.8179 98.6718 26.1283 98.8258 26.4696C98.9797 26.8109 99.0721 27.1988 98.9489 27.5557C98.7642 28.0677 98.1637 28.3314 97.6403 28.2228C97.1168 28.1142 96.7011 27.6798 96.501 27.1833C96.2239 26.5006 96.3163 25.6628 96.7319 25.0577C96.9629 24.7319 97.2862 24.4681 97.4709 24.0957C97.6557 23.7234 97.6249 23.2113 97.2708 23.0252L99.1953 22.7304H99.1799Z" fill="#F0E74D"/>
<path d="M96.6863 41.7522C96.9788 42.2021 97.1328 42.7452 97.102 43.2882C97.102 43.583 97.025 43.8778 97.025 44.1881C97.025 44.4984 97.0866 44.8087 97.2867 45.026C97.4869 45.2432 97.8718 45.3052 98.0873 45.1035C98.3336 44.8708 98.2721 44.4519 98.1181 44.1416C97.8564 43.583 97.2713 42.0935 96.7633 41.7522H96.6709H96.6863Z" fill="#F0E74D"/>
<path d="M71.3754 27.8348C71.1137 28.9674 71.1907 30.1621 71.5756 31.2482C71.6987 31.5895 71.8373 31.9154 71.8681 32.2722C71.8989 32.6291 71.7911 33.017 71.4832 33.2031C71.0983 33.4514 70.5594 33.2342 70.2977 32.8618C70.036 32.4894 69.9898 32.0085 69.9744 31.543C69.9436 30.1466 70.1745 28.7347 70.6672 27.4314L71.3754 27.8348Z" fill="#F0E74D"/>
<path d="M52.6542 25.1663L52.9467 26.2213C53.0544 26.5782 53.1468 26.9506 53.2546 27.3074C53.3316 27.5712 53.4085 27.8505 53.3624 28.1142C53.3162 28.378 53.116 28.6417 52.8543 28.6728C52.5772 28.7038 52.3308 28.4556 52.2385 28.1763C52.1461 27.897 52.2077 27.6177 52.2385 27.3385C52.3616 26.5937 52.4848 25.849 52.608 25.1197L52.6388 25.1818L52.6542 25.1663Z" fill="#F0E74D"/>
<path d="M69.6964 37.082C69.8657 37.0665 70.0505 37.082 70.2198 37.0045C70.4046 36.9269 70.5739 36.7717 70.7433 36.6476C71.1436 36.6786 71.1282 36.6321 71.3283 36.4304C71.3899 36.2908 71.4669 36.0425 71.4361 35.8718C71.0974 35.515 71.0358 35.5926 70.7125 35.2512C70.3738 34.9254 70.2506 35.1271 69.7118 35.2823C69.3731 35.6081 69.3731 35.8408 69.1113 36.1046C69.2345 36.6942 69.2345 36.6942 69.7118 37.082H69.6964Z" fill="#F0E74D"/>
<path d="M110.064 36.4925C109.849 36.5701 109.587 36.8184 109.587 36.989C109.587 37.1442 109.895 37.3149 110.095 37.5166C110.372 37.3149 110.649 37.2063 110.772 37.0201C110.942 36.7408 110.464 36.3529 110.064 36.4925Z" fill="#F0E74D"/>
<path d="M49.9593 33.2963H49.6976C49.4359 33.498 49.1896 33.4825 49.1896 33.7928C49.1896 34.1186 49.3897 34.4445 49.6976 34.5375C50.0209 34.6306 50.4058 34.3979 50.4828 34.0566C50.5598 33.7152 50.2981 33.3429 49.9593 33.2963Z" fill="#F0E74D"/>
<path d="M90.0188 46.562C90.0958 46.2207 89.8341 45.8483 89.4954 45.8018H89.2336C88.9719 46.0035 88.7256 45.9879 88.7256 46.2983C88.7256 46.6241 88.9257 46.9499 89.2336 47.043C89.557 47.1361 89.9419 46.9034 90.0188 46.562Z" fill="#F0E74D"/>
<path d="M51.314 32.4585H51.1909C51.1909 32.4585 51.0985 32.5516 51.0985 32.6136C51.0985 32.6912 51.1601 32.7688 51.237 32.7688C51.314 32.7688 51.391 32.7222 51.4218 32.6602C51.4218 32.6291 51.4372 32.5981 51.4218 32.5671C51.4218 32.5671 51.391 32.5516 51.3756 32.536C51.314 32.5205 51.3756 32.474 51.314 32.4585Z" fill="#F0E74D"/>
<path d="M87.8019 45.9257L87.6326 45.9567C87.6326 45.9567 87.494 46.0653 87.494 46.1429C87.494 46.2515 87.5864 46.3446 87.6941 46.3601C87.8019 46.3601 87.9097 46.2981 87.9559 46.205C87.9713 46.1584 87.9867 46.1119 87.9559 46.0809C87.9405 46.0653 87.9097 46.0498 87.8943 46.0498C87.8173 46.0188 87.8943 45.9723 87.8019 45.9412V45.9257Z" fill="#F0E74D"/>
<path d="M95.3619 23.1957C95.3619 23.1957 95.3619 23.0406 95.3311 22.994C95.3004 22.9475 95.2234 22.9165 95.1926 22.901C94.9155 22.994 94.6229 23.0251 94.4074 23.1802C94.2534 23.2888 94.2073 23.5526 94.1457 23.7698C94.1457 23.8164 94.2996 23.9715 94.3458 23.956C94.7461 23.8009 95.131 23.5836 95.3773 23.1957H95.3619Z" fill="#F0E74D"/>
<path d="M119.794 41.0073L123.228 21.4889C123.259 21.2717 123.459 21.1165 123.674 21.1165H128.047C128.324 21.1165 128.539 21.3648 128.493 21.644L127.292 28.5019C127.215 28.9363 127.723 29.2156 128.047 28.9053L136.16 21.2251C136.237 21.1475 136.36 21.101 136.468 21.101H141.98C142.395 21.101 142.596 21.613 142.288 21.8923L134.405 29.2311C134.267 29.3707 134.22 29.5724 134.297 29.7586L139.409 40.8832C139.547 41.178 139.332 41.5348 138.993 41.5348H133.974C133.789 41.5348 133.635 41.4262 133.558 41.2556L130.233 33.5754C130.11 33.2961 129.756 33.2186 129.525 33.4047L126.014 36.3372C125.937 36.3992 125.876 36.5078 125.86 36.6164L125.075 41.1625C125.044 41.3797 124.844 41.5348 124.629 41.5348H120.241C119.964 41.5348 119.748 41.2866 119.794 41.0073Z" fill="#F0E74D"/>
<path d="M147.584 41.8919C145.598 41.8919 143.905 41.5971 142.488 40.992C141.072 40.3869 140.01 39.487 139.271 38.2923C138.532 37.0976 138.162 35.6082 138.162 33.8239C138.162 33.3739 138.193 32.9085 138.239 32.474C138.285 32.0241 138.347 31.5741 138.424 31.1242C138.793 28.9055 139.486 27.0281 140.502 25.4921C141.518 23.9561 142.858 22.7924 144.521 21.9856C146.183 21.1788 148.169 20.7754 150.494 20.7754C152.496 20.7754 154.205 21.0857 155.621 21.6908C157.037 22.2959 158.1 23.1958 158.839 24.406C159.578 25.6162 159.947 27.1212 159.947 28.921C159.947 29.3399 159.932 29.7588 159.886 30.1933C159.839 30.6277 159.793 31.0621 159.716 31.4966C159.347 33.7308 158.639 35.6392 157.607 37.1752C156.575 38.7112 155.221 39.8904 153.543 40.6972C151.864 41.504 149.878 41.9074 147.584 41.9074V41.8919ZM147.846 37.7338C148.739 37.7338 149.524 37.5941 150.232 37.3304C150.941 37.0666 151.556 36.6787 152.08 36.1822C152.603 35.6857 153.034 35.0806 153.373 34.3669C153.712 33.6532 153.974 32.8464 154.128 31.931C154.205 31.481 154.266 31.0932 154.312 30.7673C154.358 30.457 154.405 30.1933 154.435 29.976C154.466 29.7743 154.482 29.5882 154.497 29.4485C154.497 29.3089 154.512 29.1692 154.512 29.0296C154.512 28.1763 154.343 27.4315 154.02 26.8109C153.696 26.1903 153.219 25.7093 152.573 25.3835C151.926 25.0577 151.141 24.887 150.202 24.887C149.339 24.887 148.554 25.0111 147.846 25.2749C147.138 25.5386 146.522 25.911 145.999 26.423C145.475 26.935 145.044 27.5401 144.705 28.2538C144.367 28.9675 144.105 29.7743 143.951 30.6587C143.874 31.1397 143.812 31.5276 143.766 31.8534C143.72 32.1637 143.689 32.4275 143.658 32.6447C143.643 32.8464 143.628 33.0326 143.612 33.1722C143.612 33.3119 143.612 33.4515 143.612 33.5911C143.612 34.4445 143.766 35.1737 144.089 35.7943C144.397 36.415 144.875 36.8804 145.506 37.2218C146.137 37.5631 146.922 37.7338 147.861 37.7338H147.846Z" fill="#F0E74D"/>
<path d="M158.854 41.0074L162.272 21.489C162.302 21.2718 162.502 21.1166 162.718 21.1166H167.09C167.368 21.1166 167.583 21.3649 167.537 21.6441L164.92 36.6321C164.873 36.9113 165.089 37.1596 165.366 37.1596H174.45C174.727 37.1596 174.942 37.4078 174.896 37.6871L174.296 41.1471C174.265 41.3643 174.065 41.5194 173.849 41.5194H159.331C159.054 41.5194 158.838 41.2712 158.884 40.9919L158.854 41.0074Z" fill="#F0E74D"/>
<path d="M183.149 41.8919C181.163 41.8919 179.469 41.5971 178.053 40.992C176.636 40.3869 175.574 39.487 174.835 38.2923C174.096 37.0976 173.727 35.6082 173.727 33.8239C173.727 33.3739 173.757 32.9085 173.804 32.474C173.85 32.0241 173.911 31.5741 173.988 31.1242C174.358 28.9055 175.051 27.0281 176.067 25.4921C177.083 23.9561 178.422 22.7924 180.085 21.9856C181.748 21.1788 183.734 20.7754 186.059 20.7754C188.06 20.7754 189.769 21.0857 191.185 21.6908C192.602 22.2959 193.664 23.1958 194.403 24.406C195.142 25.6162 195.512 27.1212 195.512 28.921C195.512 29.3399 195.496 29.7588 195.45 30.1933C195.404 30.6277 195.358 31.0621 195.281 31.4966C194.911 33.7308 194.203 35.6392 193.171 37.1752C192.14 38.7112 190.785 39.8904 189.107 40.6972C187.429 41.504 185.443 41.9074 183.149 41.9074V41.8919ZM183.411 37.7338C184.303 37.7338 185.089 37.5941 185.797 37.3304C186.505 37.0666 187.121 36.6787 187.644 36.1822C188.168 35.6857 188.599 35.0806 188.938 34.3669C189.276 33.6532 189.538 32.8464 189.692 31.931C189.769 31.481 189.831 31.0932 189.877 30.7673C189.923 30.457 189.969 30.1933 190 29.976C190.031 29.7743 190.046 29.5882 190.061 29.4485C190.061 29.3089 190.077 29.1692 190.077 29.0296C190.077 28.1763 189.908 27.4315 189.584 26.8109C189.261 26.1903 188.784 25.7093 188.137 25.3835C187.49 25.0577 186.705 24.887 185.766 24.887C184.904 24.887 184.119 25.0111 183.411 25.2749C182.702 25.5386 182.086 25.911 181.563 26.423C181.04 26.935 180.608 27.5401 180.27 28.2538C179.931 28.9675 179.669 29.7743 179.515 30.6587C179.438 31.1397 179.377 31.5276 179.331 31.8534C179.284 32.1637 179.254 32.4275 179.223 32.6447C179.207 32.8464 179.192 33.0326 179.177 33.1722C179.177 33.3119 179.177 33.4515 179.177 33.5911C179.177 34.4445 179.331 35.1737 179.654 35.7943C179.962 36.415 180.439 36.8804 181.07 37.2218C181.702 37.5631 182.487 37.7338 183.426 37.7338H183.411Z" fill="#F0E74D"/>
<path d="M203.501 41.8918C200.746 41.8918 198.606 41.2401 197.097 39.9213C195.588 38.6025 194.818 36.6321 194.818 33.9789C194.818 33.1721 194.864 32.3808 194.972 31.6361C195.065 30.8758 195.218 30.1776 195.419 29.526C195.911 27.6176 196.696 26.0195 197.79 24.7162C198.883 23.4129 200.222 22.4354 201.823 21.7528C203.409 21.0701 205.195 20.7442 207.166 20.7442C208.49 20.7442 209.706 20.8684 210.83 21.1321C211.954 21.3959 212.924 21.7838 213.77 22.2958C214.602 22.8078 215.248 23.4594 215.726 24.2352C216.188 25.011 216.418 25.9264 216.418 26.9659C216.418 27.1832 216.418 27.4004 216.388 27.6176C216.372 27.8348 216.341 28.0675 216.295 28.3003H211.107C211.122 28.2072 211.138 28.1141 211.138 28.021V27.7727C211.138 27.3228 211.045 26.9039 210.861 26.547C210.676 26.1902 210.399 25.8954 210.029 25.6471C209.66 25.3989 209.244 25.2282 208.782 25.1041C208.32 24.98 207.797 24.9179 207.243 24.9179C206.334 24.9179 205.518 25.042 204.764 25.2903C204.009 25.5385 203.363 25.9109 202.809 26.3919C202.254 26.8728 201.808 27.4624 201.438 28.1451C201.069 28.8278 200.823 29.6191 200.684 30.5035C200.592 31 200.515 31.4189 200.468 31.7447C200.422 32.0705 200.376 32.3498 200.345 32.598C200.314 32.8463 200.284 33.0325 200.268 33.1876C200.253 33.3428 200.237 33.4979 200.237 33.6686C200.237 34.5685 200.407 35.3132 200.746 35.9183C201.084 36.5234 201.562 36.9734 202.208 37.2837C202.855 37.594 203.655 37.7492 204.61 37.7492C205.564 37.7492 206.396 37.594 207.196 37.2992C207.997 37.0044 208.659 36.5855 209.182 36.058C209.721 35.5305 210.029 34.9254 210.122 34.2272L210.152 34.072H205.241C204.964 34.072 204.748 33.8082 204.795 33.529L205.303 30.6896C205.349 30.4724 205.534 30.3173 205.749 30.3173H215.402C215.679 30.3173 215.895 30.5655 215.849 30.8448L214.063 41.147C214.032 41.3643 213.832 41.5194 213.616 41.5194H211.338C211.107 41.5194 210.907 41.3332 210.891 41.1005L210.753 39.3473C210.106 39.9058 209.398 40.3713 208.659 40.7436C207.905 41.116 207.119 41.4108 206.288 41.597C205.457 41.7832 204.533 41.8763 203.532 41.8763L203.501 41.8918Z" fill="#F0E74D"/>
<path d="M219.282 41.0074L220.576 33.591C220.591 33.4979 220.576 33.4048 220.545 33.3117L215.126 21.7527C214.987 21.4579 215.203 21.1011 215.541 21.1011H220.237C220.422 21.1011 220.576 21.2097 220.653 21.3648L223.932 28.7657H224.086L229.875 21.2717C229.967 21.1631 230.09 21.1011 230.229 21.1011H234.986C235.371 21.1011 235.571 21.551 235.34 21.8458L225.98 33.3583C225.98 33.3583 225.903 33.4979 225.887 33.56L224.563 41.1625C224.532 41.3798 224.332 41.5349 224.117 41.5349H219.744C219.467 41.5349 219.252 41.2867 219.298 41.0074H219.282Z" fill="#F0E74D"/>
</svg>
