<svg width="1440" height="186" viewBox="0 0 1440 186" fill="none" xmlns="http://www.w3.org/2000/svg">
<path d="M1625.87 427.766L1613.66 79.1936C1613.57 78.6142 1613.47 78.0165 1613.38 77.4188C1613 77.4952 1612.62 77.5717 1612.26 77.6647C1610.16 75.9681 1608.06 74.2717 1605.96 72.5752L1603.46 72.7247C1603.99 68.0116 1601.23 68.7041 1598.72 68.9649C1597.35 72.1275 1594.98 73.24 1592.34 73.8643L1592.32 73.7001C1590.47 71.6649 1588.16 70.8566 1585.72 70.3554C1585.38 70.3172 1585.04 70.3338 1584.71 70.3687C1583.15 69.5919 1581.61 68.5179 1579.85 69.2169C1579.7 67.7046 1579.55 66.1922 1579.39 64.6798C1578.59 64.6898 1577.79 64.7182 1577 64.7265C1575.81 63.1561 1574.64 61.5658 1573.45 59.9771C1572.72 58.9479 1571.97 57.9585 1571.06 57.2614C1570.15 56.5642 1569.12 56.1375 1567.84 56.1974C1567.86 55.7159 1567.89 55.2345 1567.92 54.7713C1567.48 54.7066 1567.06 54.6586 1566.63 54.6104C1565.75 52.9537 1564.86 51.297 1563.97 49.6403C1564.5 48.9961 1565.02 48.3519 1565.55 47.7078C1560.32 46.5211 1557.8 38.6273 1551.43 40.2846C1547.5 38.1898 1543.33 36.5798 1540.05 33.1469C1539.6 33.0457 1539.16 32.9444 1538.72 32.8431C1538.37 32.1244 1538.01 31.4072 1537.66 30.6884C1538.11 28.8191 1537.57 27.1258 1536.91 25.4641C1533.73 23.9171 1533.81 18.09 1529.48 18.0438C1529.37 17.5939 1529.26 17.1274 1529.16 16.6776C1527.82 16.6511 1526.42 16.4104 1525.6 18.0972C1524 18.172 1523.5 16.7693 1522.9 15.4695C1518.56 11.3178 1516.24 5.37302 1512.78 0.429401C1512.4 0.505814 1512.02 0.527322 1511.63 0.494159C1510.15 0.64865 1508.65 0.823079 1507.38 1.41583C1506.09 2.02852 1505.01 3.06123 1504.34 4.97208C1500.55 5.44049 1502.65 9.32841 1501.54 11.3406L1498.21 11.9634C1496.52 14.5699 1498.18 19.3126 1494.08 20.3472C1492.53 21.1906 1490.54 19.7033 1488.69 22.0691C1492.07 22.5636 1495.94 22.824 1493.29 28.2926C1492.95 28.3093 1492.6 28.3823 1492.27 28.4902C1489.51 26.9914 1488.48 29.8236 1487.15 31.4174C1485.97 32.8103 1485.42 34.9668 1483.25 34.8425C1483 35.3289 1482.75 35.7971 1482.51 36.2818C1482.86 37.1667 1483.2 38.0698 1483.53 38.9563C1482.95 40.5268 1482.15 41.752 1480.42 41.4898C1479.88 40.9204 1479.39 40.6216 1478.97 40.6648C1478.51 40.713 1478.11 41.1961 1477.84 42.2005C1475.55 43.5985 1473.13 44.8637 1472.63 48.2852C1472.23 51.7516 1470.85 54.6387 1468.75 57.1224C1468.6 57.911 1468.45 58.6812 1468.31 59.4698C1466.17 61.0736 1464.03 62.6957 1461.89 64.3177C1457.52 65.6013 1454.04 69.6822 1449.24 69.5746L1448.92 69.6078C1447.58 69.7474 1447.14 70.9161 1446.87 72.2891C1444.79 72.8918 1443.74 74.4375 1443.66 76.8762C1442.64 76.9643 1441.6 77.0539 1440.58 77.142L1440.56 77.1437C1437.79 76.1246 1437.29 78.1467 1437.1 80.5605C1439.94 84.2607 1434.9 86.0009 1435.14 89.0505C1435.16 89.3244 1435.22 89.6133 1435.34 89.9137C1430.72 93.1197 1432.16 98.935 1430.89 103.56C1430.46 105.152 1431.69 107.473 1430.13 108.519C1428.19 109.807 1427.61 107.18 1426.62 106.031C1425.78 105.068 1424.95 104.492 1424.04 104.587C1423.56 104.637 1423.06 104.872 1422.52 105.334C1421.69 105.015 1420.88 104.677 1420.05 104.358C1419.68 104.193 1419.31 104.029 1418.94 103.865C1417.24 103.324 1416.11 100.44 1413.99 101.674C1413.12 100.88 1412.24 100.107 1411.36 99.3333C1410.85 98.6311 1410.33 97.9488 1409.83 97.2649C1407.54 97.8344 1405.25 98.404 1402.98 98.9901C1399.28 101.861 1395.92 101.861 1393.62 97.0004C1392.36 94.3509 1390.4 95.015 1388.54 94.8408C1387.34 92.5898 1385.6 92.2745 1383.58 92.9819L1382.54 94.5259C1382.19 94.5077 1381.84 94.5442 1381.47 94.6372C1379.14 96.2975 1376.17 96.6812 1375.41 100.866C1374.82 104.039 1372.12 103.086 1370.04 102.382C1369.15 101.113 1368.26 99.8426 1367.39 98.571C1367.04 98.4598 1366.71 98.4017 1366.36 98.3835C1364.44 94.4774 1361.02 99.4364 1358.89 96.7488C1356.78 98.3311 1354.61 99.7721 1352.34 100.948C1350.07 102.123 1347.69 103.033 1345.19 103.551L1345.18 103.553C1343.96 102.464 1342.92 101.136 1341.78 99.9473C1340.64 98.7587 1339.39 97.7296 1337.77 97.2715C1336.63 96.2124 1335.31 96.6807 1334.03 96.7405C1332.38 96.4883 1330.74 96.2361 1329.1 96.0021C1328.43 95.4642 1327.76 94.9448 1327.1 94.4053C1326.18 90.9838 1324.37 88.3924 1321.28 87.6091C1318.8 86.9834 1318.96 89.9866 1318.02 91.4658C1317.93 91.7331 1317.85 91.9804 1317.77 92.2461C1317.36 92.51 1316.95 92.774 1316.52 93.0579C1313.66 94.4975 1311.7 97.5737 1308.63 98.6846C1308.33 99.1029 1308.06 99.518 1307.78 99.9148C1307.65 99.9281 1307.53 99.9232 1307.4 99.9365C1305.24 100.161 1303.29 101.23 1301.42 102.824L1301.25 102.933C1297.83 103.179 1296.28 105.937 1295.32 109.129C1294.67 111.371 1294.22 113.388 1291.6 112.832C1289.61 111.105 1288.17 112.286 1286.85 114.007C1286.97 114.381 1286.91 114.756 1286.72 115.088C1286.21 115.878 1285.71 116.685 1285.33 117.59C1285.18 118.121 1285.08 118.666 1285.01 119.189C1284.48 119.483 1283.95 119.649 1283.42 119.704C1280.69 119.988 1277.97 117.527 1275.23 117.481C1274.7 116.303 1274.16 115.126 1273.62 113.967C1269.78 114.256 1265.94 114.545 1262.1 114.834C1260.35 112.475 1258.97 109.452 1256.77 107.932C1253.3 105.513 1253.11 102.163 1253.22 98.3581C1251.44 97.4203 1249.33 97.1067 1248.31 94.8191C1246.84 94.1253 1245.33 93.546 1244.01 92.6148C1242.7 91.7018 1241.59 90.4734 1240.98 88.4929C1239.64 87.8223 1238.28 87.1352 1236.92 86.448C1236.04 85.4353 1235.23 85.8139 1234.6 86.7818C1234 87.7281 1234.48 88.9117 1234.31 89.9427C1233.69 93.3211 1232.53 95.4859 1229.38 92.4813C1228.91 92.1244 1228.45 91.7858 1227.97 91.4305C1227.07 89.7572 1226.8 88.0175 1227.52 86.1564C1227.18 86.0817 1226.83 86.0253 1226.49 86.0054C1224.49 81.7207 1222.37 81.2975 1220.32 85.8928C1219.19 88.4412 1217.14 89.7595 1215.32 91.4214C1215.29 91.7933 1215.24 92.1668 1215.17 92.542C1215.55 92.9819 1215.69 93.5198 1215.75 94.0842C1215.31 95.1052 1214.92 96.1777 1214.56 97.3016C1213.36 99.6541 1211.88 101.925 1212.83 104.92C1213.01 105.915 1213.17 106.911 1213.26 107.931C1213.35 108.383 1213.38 108.84 1213.4 109.298C1213.37 109.909 1213.34 110.483 1212.92 110.638C1211.02 111.7 1209.14 112.761 1207.25 113.824C1204.89 112.265 1203.25 114.148 1201.47 115.365C1200.8 113.905 1200.06 113.413 1199.26 113.496C1198.46 113.579 1197.58 114.259 1196.71 115.05C1196.36 115.473 1196.04 115.911 1195.74 116.384C1195.71 116.424 1195.68 116.482 1195.67 116.539C1190.78 117.158 1186.03 118.684 1181.1 118.977C1180.12 119.042 1179.37 119.912 1179.31 121.17C1179.21 121.217 1179.12 121.263 1179.04 121.308C1176.61 119.628 1173.64 121.318 1171.16 119.919C1170.33 119.618 1169.51 119.225 1168.7 118.868C1164.06 119.645 1163.45 120.703 1165.86 125.037C1165.86 125.037 1165.81 125.097 1165.8 125.135C1162.94 123.334 1159.56 123.907 1156.58 122.652C1155.43 122.237 1154.34 121.652 1153.1 121.818C1151.55 122.42 1149.89 122.796 1148.69 124.062L1148.66 124.066C1148.16 123.842 1147.65 123.711 1147.12 123.674C1141.98 123.859 1136.66 125.167 1132.32 120.483C1131.94 120.006 1131.54 119.606 1131.07 119.231C1130.65 118.962 1130.2 118.751 1129.73 118.579C1129.52 117.717 1128.73 117.081 1128.02 116.64C1125.85 115.282 1124.96 112.945 1123.83 110.742C1121.9 108.77 1119.56 108.479 1117.14 108.511C1117 108.654 1116.85 108.743 1116.7 108.869C1116.33 106.828 1115.14 106.509 1113.51 107.195C1113.53 102.995 1110.67 100.898 1108.47 98.3101C1107.13 97.2892 1105.57 96.255 1104.07 96.964C1096.98 100.243 1089.78 97.9362 1082.64 97.6296C1079.41 97.487 1077.05 98.1927 1076.9 102.333C1076.8 105.326 1074.97 104.91 1073.33 105.614C1069.79 107.143 1065.23 106.144 1062.73 110.455C1057.76 107.106 1054.21 107.383 1051.01 111.363C1050.16 113.845 1049.66 116.419 1049.26 119.039C1048.86 124.936 1046.61 128.686 1040.93 128.486C1030.61 125.879 1021.57 130.869 1012.4 134.881C1011.48 135.289 1011.03 136.442 1010.65 137.494C1010.62 137.607 1010.62 137.718 1010.59 137.831C1010.06 138.052 1009.57 138.361 1009.12 138.758C1008.97 138.92 1008.84 139.1 1008.71 139.279C1003.71 137.075 999.263 138.403 996.079 143.061C995.646 138.853 993.09 138.475 989.8 139.388C987.771 140.778 985.391 135.759 983.448 138.429C983.006 138.53 982.585 138.703 982.186 138.947C981.204 139.749 980.373 140.83 979.129 141.162C978.887 139.143 978.799 136.63 976.333 141.416C975.914 142.215 975.188 142.787 974.404 142.243C971.624 140.268 969.384 141.642 967.14 142.962C966.457 142.868 965.763 142.848 965.063 142.939C964.553 142.808 964.034 142.752 963.503 142.752C961.178 143.454 958.708 142.349 956.355 142.704C954.976 142.553 953.633 142.269 952.368 141.536C952.459 141.268 952.551 141.001 952.561 140.724C952.572 140.06 952.46 139.464 952.189 138.884C951.858 138.366 951.424 137.97 950.933 137.671C950.884 137.658 950.836 137.663 950.772 137.669C950.516 134.05 948.189 134.329 945.453 135.332C943.952 136.28 942.478 137.373 940.66 136.163C936.294 133.266 932.06 135.659 927.763 136.456C927.593 135.939 927.272 135.549 926.802 135.304C924.061 135.239 921.653 135.913 920.289 138.983C919.809 139.825 919.576 140.733 919.768 141.725C919.787 141.76 919.804 141.777 919.838 141.792C919.082 142.607 918.73 143.638 918.662 144.805C918.612 146.799 918.8 148.749 919.288 150.632C918.891 152.515 917.519 152.86 914.45 151.909C910.212 150.619 905.048 148.413 901.95 154.959C901.951 154.978 901.983 154.974 902.002 155.009C896.124 159.377 895.989 151.64 893.197 149.518C892.947 149.213 892.73 149.107 892.509 149.166C892.503 149.093 892.466 149.024 892.444 148.952C890.623 145.496 888.253 142.815 885.197 140.611C880.449 137.164 876.106 137.58 871.641 140.917C870.883 141.493 870.023 141.804 869.165 142.151C868.338 140.856 867.676 139.212 866.122 139.503C866.021 139.44 865.951 139.373 865.833 139.312C864.01 139.244 863.003 140.141 862.933 142.081C860.916 140.395 858.168 142.062 856.103 140.583C852.423 139.438 848.386 139.655 845.264 136.427C844.564 135.726 843.494 135.819 842.653 136.57C843.339 133.883 842.694 131.851 840.465 130.537C839.389 130.354 838.324 130.318 837.329 130.55C836.026 129.949 834.894 129.073 834.461 127.074C833.05 125.325 831.772 123.414 830.217 121.882C828.875 120.585 827.175 118.442 825.832 121.97C823.786 121.133 822.652 123.461 821.163 124.555C819.049 125.493 816.919 125.42 814.914 124.285C808.88 120.862 803.622 122.717 798.703 127.206C796.262 129.688 792.147 128.938 790.197 132.327C790.639 128.985 787.692 128.555 786.267 126.825C785.789 126.488 785.257 126.267 784.686 126.18C783.728 126.261 782.808 126.228 781.914 126.118C781.676 125.959 781.438 125.8 781.2 125.64C781.239 125.323 781.261 124.99 781.284 124.674C780.018 117.478 776.527 120.511 773.365 122.018C773.466 121.879 773.571 121.776 773.656 121.638C774.062 120.675 774.063 119.681 773.981 118.658C773.926 117.964 773.73 117.322 773.441 116.726C771.352 112.322 768.707 109.025 763.742 110.113C761.48 110.606 759.802 108.332 757.72 107.849C757.706 107.666 757.646 107.525 757.617 107.362C757.399 106.648 757.077 106.038 756.631 105.495C753.12 103.025 749.537 101.078 745.173 101.642C740.013 102.308 738.224 104.686 739.179 110.405C738.975 110.868 738.789 111.366 738.621 111.881C738.608 111.919 738.595 111.957 738.598 111.994C737.223 112.1 735.753 112.437 735.214 110.118C732.204 107.283 729.262 104.293 724.952 104.926C724.846 104.808 724.74 104.69 724.648 104.534C724.578 104.468 724.507 104.383 724.437 104.317C724.52 103.737 724.456 103.136 724.262 102.53C723.191 100.598 721.782 99.2717 719.661 99.3084C717.149 101.098 713.775 101.762 712.45 105.123L712.402 105.128C711.488 105.168 710.597 105.297 709.721 105.609L708.942 106.74C706.931 105.531 705.025 106.853 704.398 108.668C703.259 111.935 701.033 112.682 698.781 113.69C699.179 112.433 698.867 111.342 697.987 110.403C697.799 110.257 697.596 110.131 697.392 110.004C697.404 109.543 697.208 109.103 696.788 108.686C693.881 108.75 690.931 109.48 689.048 106.049C688.94 105.508 688.696 105.073 688.376 104.683C688.06 104.163 687.645 103.801 687.129 103.579C686.358 102.996 685.541 102.437 685.091 101.637C684.773 101.08 684.414 100.602 684.022 100.128C678.928 97.1962 676.457 91.4323 673.114 86.6431C672.277 85.4229 671.713 84.0087 670.387 83.3181C669.827 83.1555 669.261 83.1223 668.69 83.2186C668.408 83.3215 668.131 83.4794 667.888 83.6521C668.709 81.0439 667.497 79.7708 665.053 79.3808C661.941 78.8946 658.852 78.903 655.897 80.389C655.776 80.8804 655.666 81.3155 655.587 81.7471C655.551 81.6957 655.531 81.6424 655.51 81.5893C651.748 78.593 647.18 77.2089 643.92 73.0555C642.023 70.6568 639.686 70.2004 636.446 72.9498C633.825 75.1929 629.481 74.798 625.781 75.4042C624.732 73.359 623.344 73.0984 621.644 74.3802L621.637 74.2887C620.54 73.2429 619.473 73.3909 618.455 74.3439C618.455 74.3439 618.404 74.3123 618.387 74.2957C618.415 74.2376 618.458 74.1779 618.486 74.1198C618.08 70.4427 616.563 69.5877 613.739 71.502C612.747 72.1761 611.874 72.9298 611.126 73.8363C610.416 72.8054 609.693 71.8127 608.388 71.7829C604.68 72.7028 603.538 75.7311 603.169 79.3785C602.107 79.5811 601.259 80.2401 600.451 81.0055C599.85 81.3442 599.245 81.6281 598.606 81.8789C596.432 83.6703 592.101 83.2372 593.313 88.5429C593.603 88.9546 593.964 89.2485 594.352 89.4659C591.442 90.9105 589.23 92.8345 589.987 96.6777C588.216 95.0393 586.671 95.8445 585.021 98.3547C582.738 101.815 580.759 105.648 577.3 107.868C575.6 108.542 574.445 107.373 573.262 106.263C572.814 105.886 572.312 105.644 571.785 105.496C567.481 105.594 565.003 109.627 562.218 112.237C559.252 114.994 557.095 116.195 553.54 114.392C551.863 113.536 549.839 112.77 547.964 114.07C549.052 110.569 546.057 109.942 544.587 108.254C544.152 108.041 543.705 107.885 543.262 107.784C543.391 105.763 541.808 104.676 540.129 103.801C537.896 102.635 535.554 101.718 533.595 99.9522C533.037 99.6235 532.461 99.4625 531.848 99.4343C527.081 100.188 523.338 96.8401 519.195 95.1354C515.951 93.7976 513.167 93.7928 510.532 96.4607C510.281 96.7446 510.1 97.0949 509.967 97.4402C505.729 94.1435 501.163 93.5877 497.172 95.7893C497.132 95.7014 497.095 95.6316 497.039 95.5453C496.624 94.7783 496.061 94.1742 495.397 93.7094C495.609 92.7481 495.51 91.7089 495.378 90.6547C493.008 78.4911 484.805 74.0974 475.526 71.1414C474.618 71.2543 473.791 71.1747 473.018 70.9606C471.305 69.6658 469.641 68.1635 467.724 67.5344C466.792 66.7476 465.846 65.9808 464.819 65.4064C463.867 64.9715 462.898 64.52 461.943 64.0486C460 63.6985 458.804 61.816 457.122 60.9047C456.826 60.8251 456.535 60.8002 456.246 60.8119C456.679 59.1833 456.389 57.7588 454.581 57.4867C452.609 57.1764 452.52 59.0822 452.758 60.6593C453.173 63.4333 451.776 65.291 450.483 67.2301C449.989 69.5095 448.985 71.8421 450.441 73.9553C448.674 74.5996 447.679 76.4523 446.261 77.6311C445.943 77.8852 445.66 78.1724 445.377 78.4597C444.179 79.3761 443.388 80.5449 442.918 81.9195C442.402 82.9123 441.956 83.9714 441.543 85.0456C441.334 85.6565 441.254 86.2724 441.24 86.9C440.992 87.0178 440.761 87.1524 440.512 87.252C439.987 87.5276 439.533 87.8879 439.134 88.3345C438.947 88.6118 438.793 88.9039 438.641 89.2143C434.403 88.9374 431.473 90.9365 430.543 96.6125C430.101 99.3467 428.577 100.813 426.018 100.803C419.6 100.827 413.183 100.868 407.422 96.8281C407.097 96.3833 406.754 95.9219 406.413 95.4787C406.58 91.7235 403.513 91.3981 401.673 90.5217C400.253 89.8594 399.548 92.5291 398.972 94.1727C398.698 94.9745 397.919 96.3076 397.887 96.3109C393.283 93.4575 388.221 97.9799 383.666 95.1398C383.247 94.7231 382.842 94.2867 382.439 93.8684C381.894 91.0711 379.019 89.529 379.292 86.2967C378.144 85.827 376.982 85.3771 375.836 84.9256C374.739 84.2849 373.964 84.0526 373.421 84.1091C371.475 84.3117 372.309 88.11 371.297 89.5411C368.584 89.8235 365.875 90.1607 363.165 90.4797L363.163 90.4431C363.084 89.052 363.005 87.6607 362.926 86.2695C362.392 85.0178 361.873 83.7645 361.355 82.5111C358.428 79.5015 355.252 79.6297 352.168 81.9208C350.921 82.824 349.724 83.5563 348.345 83.8104C348.343 83.7921 348.341 83.7556 348.307 83.7406C347.889 83.3422 347.447 83.0385 346.959 82.7762C346.634 82.7364 346.295 82.7164 345.958 82.733C345.505 81.0862 344.721 79.7318 343.425 78.8171C342.859 77.5687 342.307 76.3004 341.741 75.052C337.979 67.0289 334.479 66.5095 329.447 73.0175C327.944 74.9599 326.007 76.4874 324.261 78.1974L324.245 78.1991C323.622 76.036 323 73.8912 322.361 71.7297C321.975 71.328 321.587 70.908 321.2 70.4881C318.757 70.7239 318.244 73.3734 316.874 74.9523C313.746 76.088 310.395 76.437 307.493 78.3779C301.803 75.2324 300.945 80.2012 299.807 84.7019C293.38 79.9759 288.792 84.578 284.361 88.9428C281.989 91.2704 279.841 93.188 276.605 91.3521C274.834 93.5619 272.983 94.7673 271.053 94.9683C269.122 95.1693 267.044 94.3361 264.916 92.477L264.96 92.4172C264.164 90.714 262.861 90.1131 261.268 90.1132C258.514 89.0742 255.75 88.1098 253.036 86.9562C251.403 86.2607 250.278 86.8751 249.75 88.5319C247.924 94.2827 245.124 94.2794 242.067 92.8669C241.321 92.3921 240.609 91.7298 239.923 90.8069C239.463 90.0814 239.063 89.2947 238.663 88.526C238.126 87.6429 237.607 86.7763 237.085 85.8915C233.528 83.8498 230.317 81.3299 227.724 77.8621C227.663 77.7027 227.602 77.5433 227.555 77.364C227.472 77.1333 227.375 76.9224 227.278 76.7116C227.291 76.4709 227.239 76.2187 227.057 75.9614C226.867 75.5945 226.709 75.2243 226.581 74.8326C226.156 74.5454 225.748 74.2747 225.323 73.9875C224.834 73.5045 224.314 73.0431 223.78 72.6015C223.518 72.5368 223.24 72.492 222.978 72.4272C220.872 73.4567 218.835 73.5399 216.984 71.7255C216.515 70.4854 216.07 69.9425 215.687 69.9824C215.256 70.0272 214.878 70.7295 214.539 71.9248C212.461 71.9017 212.118 69.4149 210.72 68.4372C207.875 66.8553 206.554 68.2447 206.201 71.4853C199.367 73.5592 192.75 72.7016 186.277 69.8217C186.27 69.7304 186.326 69.6324 186.333 69.5212C185.815 69.078 185.28 68.6183 184.762 68.1751C184.262 67.3616 183.763 66.5481 183.265 65.753C180.71 61.3604 177.809 63.7246 174.951 65.2007C174.972 65.4746 174.994 65.7484 175.016 66.0224C174.983 66.0074 174.967 66.009 174.949 65.9924C166.495 63.8896 158.025 61.9912 149.29 63.2319C147.127 63.5491 145.635 64.6066 145.026 67.0637C142.431 70.8323 139.764 74.5163 135.138 75.0164C134.81 74.9401 134.499 74.8804 134.173 74.8223C133.916 73.0078 132.772 71.9852 131.583 71.0041C131.499 70.1475 131.413 69.2728 131.329 68.4161C125.572 63.4179 119.143 65.5234 112.841 65.9953C110.617 66.1532 110.364 68.6283 108.967 69.6759C109.382 70.4428 109.813 71.2083 110.244 71.9735C110.334 73.8976 110.032 75.5677 108.173 76.2584C107.418 75.8766 106.659 75.44 105.925 75.5164C105.447 75.5662 104.969 75.8371 104.524 76.5095C103.801 81.3537 98.0189 84.5149 100.949 90.5808C100.583 91.0423 100.235 91.5204 99.8873 91.9985C97.8956 92.6478 96.7152 93.9859 96.8031 96.4994C96.1465 98.1512 95.0704 99.184 93.4674 99.4613C90.8223 94.3417 87.6098 93.203 83.5841 97.5993C79.4039 100.465 75.7132 96.9642 71.796 96.4697C70.679 96.7885 69.5635 97.1256 68.4305 97.446C66.2044 95.7628 63.9494 94.1194 61.7349 92.3798C59.7961 90.8692 57.9245 90.4012 56.0653 92.5097C55.6475 92.5163 55.2471 92.5396 54.8307 92.5645L54.9237 92.7207C50.4184 90.9065 46.3325 89.3063 43.8252 96.6011C42.831 99.4666 38.851 97.9842 36.2995 98.8759C32.2192 96.7413 33.0263 102.42 30.8476 103.347C29.5149 104.793 28.3536 106.976 26.7157 107.018C26.6196 106.218 26.4917 105.421 26.4102 104.601C25.7171 101.561 23.9783 99.3301 21.9683 97.3299C20.9639 96.2375 19.5275 95.7794 18.6813 94.4497C18.2951 93.8455 17.8902 93.4088 17.4926 93.0635C16.0076 90.5851 13.7923 90.8525 11.588 93.0706C9.83172 94.8554 8.06496 95.702 6.13982 95.7735C5.42596 95.498 4.71202 95.02 3.97184 94.2132C3.48138 93.9144 2.95177 93.7302 2.39756 93.6406C2.20751 93.6788 2.05086 93.7319 1.89419 93.7851C0.859421 92.7144 -0.379764 92.1068 -1.3631 92.8905C-5.37043 96.1064 -8.4191 94.3985 -11.4374 92.2638C-11.7091 91.2793 -11.9314 90.3081 -11.8055 89.2639C-13.1109 86.0118 -14.2554 82.5588 -17.9971 82.0461C-17.7043 81.2791 -17.8365 80.63 -18.5868 80.1005L-18.5433 80.0407C-19.0138 78.7824 -19.6467 77.7066 -20.8263 77.2402C-21.042 74.5375 -23.0895 73.2776 -25.0456 71.953C-26.5196 71.8303 -27.9415 71.3522 -29.3851 71.0054C-29.3446 70.7065 -29.4956 70.4277 -29.87 70.1721C-29.9325 69.7919 -30.0095 69.4316 -30.0865 69.0715C-30.825 69.0931 -31.5489 69.0948 -32.2873 69.1165C-35.31 67.1295 -36.3971 69.8389 -37.7862 71.9905C-40.7905 76.6855 -42.9457 82.5442 -49.0416 83.1787C-49.397 83.1605 -49.767 83.1623 -50.1209 83.1623C-50.5142 82.8718 -50.8696 82.8534 -51.1858 83.1257C-51.4485 82.8585 -51.7155 82.5365 -51.9551 82.1563C-54.9078 81.0459 -58.095 85.2628 -60.9296 81.5991C-61.0719 81.2272 -61.1997 80.8356 -61.3116 80.4422C-61.7353 80.1732 -62.1575 79.9224 -62.5798 79.6718C-64.9644 77.0108 -67.3199 74.31 -70.138 72.2649C-71.5788 71.752 -73.1194 72.0044 -73.8516 73.3143C-77.1225 79.105 -82.9955 82.3312 -85.3042 89.0897C-86.9505 93.8643 -89.7244 89.7524 -91.9905 89.7858C-92.0036 89.6214 -92.0631 89.4803 -92.0922 89.3176C-94.4757 85.6621 -97.7012 84.3592 -101.619 83.6622C-107.087 82.6848 -112.322 80.3941 -117.893 79.5379C-121.362 79.0152 -122.103 73.1633 -125.891 72.2687C-127.404 71.2479 -128.673 69.87 -129.967 68.5686C-134.034 67.4085 -134.818 71.7066 -136.301 74.089C-137.486 75.9799 -138.636 77.0941 -140.017 77.3299C-141.047 77.1241 -142.06 76.7324 -143.11 76.2709C-143.234 73.9086 -144.397 73.0537 -146.375 74.2724C-147.865 75.1639 -149.208 75.672 -150.795 74.935C-151.167 74.5134 -151.524 74.0718 -151.88 73.6484C-154.608 76.1604 -155.72 81.1741 -160.078 81.2043C-160.081 81.1678 -160.082 81.1494 -160.085 81.1129C-161.746 77.6401 -163.745 78.198 -165.516 80.8128C-167 82.9744 -167.089 85.6904 -167.419 88.413C-167.991 93.1494 -168.653 98.1531 -173.729 99.8783L-162.133 440.78L-161.724 440.867L-159.951 431.218L-155.952 433.545L-150.603 428.79L-150.114 434.926L-144.058 439.028L-141.56 430.408L-136.388 431.508C-136.388 431.508 -132.518 432.008 -131.143 433.319C-129.767 434.631 -124.713 442.114 -124.64 439.197C-124.551 436.279 -123.605 428.171 -123.605 428.171L-117.973 430.991L-114.489 438.767L-110.713 430.235L-106.292 429.775L-101.524 433.882C-101.524 433.882 -94.9856 428.101 -95.0716 427.023C-95.1575 425.946 -90.3919 429.814 -90.3919 429.814L-87.7992 434.276L-83.0786 437.78L-78.5985 434.036L-73.5997 436.793L-65.0797 439.92L-61.4404 433.705L-61.8718 428.299C-61.8718 428.299 -53.5281 433.249 -52.5866 433.151C-51.6451 433.053 -49.5712 431.014 -49.5712 431.014L-41.6298 430.924L-37.6322 437.063L-32.556 428.893L-26.9085 435.947L-27.6007 427.273L-24.6422 424.424L-20.4288 429.435L-15.4138 428.563L-9.86555 434.172C-9.86555 434.172 -8.01463 437.607 -7.51912 435.751C-7.02506 433.877 -5.69145 430.829 -5.83571 429.021L-6.26268 423.67L0.961698 426.49L1.22108 429.741L3.56306 435.095L5.67052 429.646L8.9249 434.536L13.0261 434.11L14.6263 430.168L17.7568 429.474L22.8082 433.091L28.4178 435.637L32.3732 437.417L36.6201 434.783L38.9403 432.001L42.5343 433.081L46.5159 439.222L53.8029 442.827L59.8031 442.203L64.2496 446.104L69.7003 442.627L72.1357 441.287L74.0317 445.085L77.9274 450.148L90.8692 448.801L94.0259 452.468L96.8664 452.172L98.216 449.123L104.127 451.417L115.399 457.167L118.98 454.253L126.3 450.213L132.604 449.557L134.01 447.219L138.11 450.807L145.064 454.078L152.628 453.291L154.758 455.978L160.742 455.355L166.204 459.887L170.766 465.231L169.96 455.132L173.394 454.407L178.044 456.832L186.535 459.594L190.011 463.227L194.303 457.33L200.013 457.104L204.027 455.582L210.375 455.289C210.375 455.289 213.274 455.724 213.781 454.216C214.303 452.689 216.043 450.703 216.043 450.703L220.128 453.905L220.331 456.444L225.022 459.583L227.158 454.278L229.013 449.703L232.113 452.658L233.981 456.109L236.704 458.367L240.805 457.94L240.604 455.42L245.225 457.48L247.108 457.284L248.72 453.488L250.749 451.086L255.748 453.843L259.648 450.896L262.89 455.641L267.63 455.147L267.025 447.569L271.632 449.649L273.471 452.735L275.686 456.5L277.007 453.085L280.107 456.039L279.906 453.519L283.339 452.794L286.873 457.158L289.395 456.895L288.934 451.125L294.134 456.402L297.148 458.28L296.6 451.413L299.671 454.003L302.641 451.503L304.714 453.478L307.234 457.23L315.133 456.407L316.669 451.865L318.307 452.431L324.725 453.218L326.423 450.5L328.452 448.097L331.218 454.733L334.089 450.788L336.261 454.208L339.421 453.879L342.799 448.427L344.758 444.945L344.988 447.831L349.392 447.372L351.351 443.891L354.569 444.292L359.668 444.48L361.726 442.442L364.627 438.863L368.004 437.425L370.455 436.083L374.062 437.531L376.22 440.584L381.202 443.324L384.275 441.918L384.42 443.726L387.055 448.92L393.023 451.926L394.805 454.3L397.965 453.971L397.877 452.875L403.965 453.346L406.734 448.326L410.359 445.758L413.428 452.361L415.63 452.132L415.371 448.882L416.835 447.275L419.561 445.536L421.486 449.7L421.86 454.393L425.121 451.494L428.632 447.501L430.137 446.608L430.311 448.781L434.875 450.129L435.106 453.014L440.164 452.487L443.509 454.68L448.16 457.105L449.771 453.31L449.483 449.694L452.437 454.856L452.927 460.991L457.477 458.326L459.865 464.265L460.01 466.072L462.62 462.891L462.505 461.449L466.635 461.387L468.98 462.947L471.389 457.246L470.956 451.823L472.507 451.293L475.202 453.204L478.506 454.683L482.607 454.256L482.837 457.141L487.024 457.791L488.317 454.03L491.388 456.619L493.603 460.384L493.258 456.056L496.954 454.585L499.59 455.765L505.59 455.141L504.5 461.441L505.936 459.469L508.601 461.014L510.585 465.908L513.934 460.091L513.473 454.32L515.113 450.872L517.461 448.436L519.415 452.965L522.196 455.953L526.559 454.781L526.242 450.8L524.317 446.636L527.822 450.635L530.849 452.879L532.574 450.509L536.212 448.307L538.284 450.283L538.025 447.032L541.011 444.53L546.807 445.381L550.852 444.242L552.91 442.205L556.692 441.811L561.141 441.716L565.908 441.57L567.968 439.551L570.026 437.514L573.153 440.816L574.618 439.209L579.994 442.663L580.57 449.876L582.864 442.732L586.499 444.527L590.021 440.883L590.511 447.018L594.511 449.161L598.524 451.653L602.075 448.374L603.686 444.561L606.974 446.041L608.643 442.958L610.052 436.625L610.397 440.953L617.902 443.449L617.441 437.678L620.137 435.575L622.701 439.672L626.513 435.629L629.672 439.314L630.103 444.72L634.829 440.232L637.727 440.649L640.831 435.593C640.831 435.593 644.206 438.17 644.03 439.992C643.871 441.832 644.668 447.586 644.668 447.586L648.335 438.09L646.222 435.4L650.237 433.896L649.978 430.646L653.266 432.126L656.178 436.555L659.67 436.56L664.32 438.985C664.32 438.985 666.015 440.263 666.55 439.103C667.102 437.959 668.018 433.5 668.018 433.5L670.828 436.853L675.188 439.676L678.26 438.252L678.549 441.868L681.389 441.572L683.39 438.823L686.377 436.321L690.422 431.167L690.797 435.86L693.926 439.181L697.196 448.304L701.357 444.594L704.676 442.425L704.243 437.002L709.835 439.329L712.069 435.469L711.377 426.795L715.203 430.779L717.697 426.137L720.422 424.399L719.759 416.09L722.512 418.731C722.512 418.731 723.974 421.12 724.8 419.579C725.642 418.037 726.18 412.88 726.18 412.88L725.806 408.187L730.108 410.28L731.602 409.038L733.807 404.813L731.765 399.189L736.126 402.012L739.37 406.775L742.951 403.861L746.314 402.056L749.589 403.17L751.445 398.595L754.199 397.222L753.249 385.315L760.667 386.532L762.853 390.134L768.142 392.493L771.012 392.562C771.012 392.562 774.242 393.312 775.142 392.5C776.025 391.672 777.579 387.146 777.579 387.146L778.039 392.917L783.226 394.2L782.91 390.237L786.357 393.506L789.227 393.575L792.284 392.171L793.517 387.66L796.793 388.792L797.254 394.562L800.414 394.234L803.936 390.589C803.936 390.589 803.125 388.483 803.706 387.704C804.27 386.909 808.112 383.231 808.112 383.231L807.982 381.606L813.519 383.037L816.603 385.993L821.342 385.5L824.703 387.691L829.527 392.289L833.016 396.29L837.294 394.04L837.668 398.733L841.521 403.064L844.376 399.121L847.277 395.542L848.801 390.651L851.349 394.75L854.812 394.389L862.247 391.792L864.942 393.703L866.522 393.538L869.07 397.637L873.984 395.303L875.996 400.562L882.444 401.713L885.285 401.418L887.313 399.015L889.042 392.649L891.792 399.286L893.631 402.372L896.12 405.74L896.438 409.721L899.149 411.63L901.845 409.526L904.973 412.828L908.287 418.67L913.681 414.481L913.363 410.5L915.774 400.785L916.61 411.267L919.45 410.971L922.55 413.926L924.881 419.133L928.867 417.264L931.242 419.208L934.49 415.942L937.155 417.487L937.473 421.468L943.746 424.461L946.165 426.75L948.861 424.647L949.005 426.454L953.555 423.79L956.351 430.79L961.478 435.357L962.738 435.226L964 431.08L961.743 426.583L965.696 432.358L969.203 432.362L971.639 431.022L975.972 429.466L974.94 436.497L976.865 440.66L980.009 440.333L981.733 441.976L992.776 440.827L995.195 443.116L999.599 442.657L999.082 436.174L1001.18 442.493L1003.11 446.674L1005.63 446.412L1006.72 440.112L1008.79 446.083L1011.16 448.009L1010.64 441.508L1014.41 444.761L1017.16 447.384L1019.06 447.186L1018.54 440.685L1022.07 449.064L1026.32 450.445L1028.23 446.6L1030.58 448.178L1032.62 445.774L1034.48 445.231L1037.36 449.295L1040.52 452.962L1043.11 449.783L1046.5 452.339L1046.65 454.147L1050.43 453.753L1053.73 459.246L1056.07 456.444L1058.12 454.407L1061.28 454.078L1061.05 451.193L1066.98 445.843L1067.36 450.536L1071 444.339L1073.13 443.012L1073.73 450.609L1075.82 452.933L1077.63 451.658L1080.04 449.953L1085.06 453.057L1088.15 452.017L1087.12 448.719L1085.17 442.495L1091.6 455.304C1091.6 455.304 1094.24 452.47 1094.15 451.393L1093.78 446.7L1096.21 449.356L1099.48 454.484L1102.27 449.462L1106.11 453.794L1108.41 458.637L1109.81 456.317L1113.19 454.861L1113.8 462.458L1115.69 462.26L1120.06 465.084L1119.91 463.276L1125.1 460.545L1127.97 456.6L1128.32 460.946L1131.88 465.657L1133.97 459.99L1135.75 462.345C1135.75 462.345 1138.01 466.842 1138.82 464.935C1139.62 463.047 1142.74 458.34 1142.74 458.34L1145.3 458.442L1147.36 460.419L1147.5 462.226C1147.5 462.226 1148.35 464.79 1149.26 464.272C1150.17 463.754 1153.76 460.838 1153.76 460.838L1156.4 462.018L1156.83 467.442L1158.59 469.432L1161.11 469.17L1164.77 471.348L1167.84 473.937L1168.16 477.9L1175.74 477.111L1177.8 479.088L1180.07 475.573L1180.33 478.824C1180.33 478.824 1181.82 481.578 1183.4 481.413L1188.13 480.922C1188.13 480.922 1192.83 488.073 1192.07 486.348C1191.28 484.607 1189.33 472.068 1189.33 472.068L1192.13 467.174L1194.63 462.771L1193.75 475.604L1194.13 480.297L1197.74 473.734L1199.38 474.3L1203.24 474.984L1205.56 472.201L1205.05 465.7L1209.46 469.236L1212.68 473.634L1214.03 470.584L1213.8 467.699L1217.81 470.19C1217.81 470.19 1218.96 468.616 1219.13 466.775C1219.31 464.934 1220.31 461.552 1220.31 461.552C1220.31 461.552 1224.38 464.774 1224.84 462.535L1225.29 460.315L1231.4 465.129L1237.09 464.538L1243.48 464.977L1248.51 464.085L1251.61 467.04L1256.59 465.785C1256.59 465.785 1255.38 470.642 1256.96 470.478C1258.54 470.313 1263.77 463.952 1263.77 463.952L1265.59 459.029L1265.25 454.701L1268.9 460.508L1271.42 460.246L1278 462.838C1278 462.838 1279.88 458.628 1279.77 457.185L1279.08 448.53L1284.39 455.249L1286.88 458.636L1290.32 453.896L1295.91 452.227L1300.51 449.926L1303.13 443.098L1302.82 439.135L1305.94 442.455L1307.55 438.642L1313.18 437.32L1315.15 434.205L1318.02 434.275L1318.39 438.968L1322.99 436.667L1321.78 441.524L1323.59 444.245L1326.64 442.474L1329.04 448.778L1330.56 443.888L1330.25 439.925L1333.32 442.514L1337.74 442.054L1339.33 438.243L1343.06 433.123L1342.74 429.16L1346.29 425.863L1346.9 433.459L1355.54 434.015L1355.16 429.322L1360.6 433.488L1363.94 431.685L1368.19 429.052L1372.03 429.37L1375.1 427.964L1377.65 424.053L1381.29 421.869L1383.29 419.102L1383.03 415.851L1385.92 419.933L1389.76 424.266L1392.06 425.112L1393.57 424.219L1396.26 422.116L1400.03 425.369L1401.91 425.173L1404.38 420.184L1407.42 422.427L1409.32 422.229L1411.02 419.493L1412.35 416.445L1416.38 418.935L1418.9 418.673C1418.9 418.673 1423.12 419.688 1422.68 418.279C1422.25 416.869 1420.58 411.942 1420.58 411.942L1424.84 417.336L1429.12 419.064L1428.86 415.813L1433.81 414.211L1437.33 414.581C1437.33 414.581 1439.61 419.076 1439.81 417.582C1440.01 416.106 1441.2 411.25 1441.2 411.25L1444.26 417.487L1449.3 416.962L1448.93 412.269L1452.94 418.775L1452.59 414.447L1455.95 416.638C1455.95 416.638 1459.06 415.579 1459.29 414.468C1459.51 413.359 1461.12 409.546 1461.12 409.546L1465.42 411.657L1465.1 407.676L1471.81 408.064L1475.21 402.629L1474.75 396.84L1477.84 403.809L1476.67 409.013L1481.42 404.891L1480.99 399.467L1484.81 407.447L1487.88 410.037L1492.01 405.961L1496.29 407.707L1496.55 410.958L1501.56 406.071L1505.52 407.833L1508.77 404.585L1510.79 406.197L1516.65 403.764L1514.89 409.766L1518.81 406.817L1521.65 410.536L1528.75 403.96L1531.47 406.235L1536.27 410.468L1540.43 406.758L1544.1 404.921L1548.11 407.413L1552.53 394.928L1550.95 407.117L1553.54 407.565L1555.6 405.528L1556.18 412.76L1560.25 407.972L1560.51 411.222L1565.5 413.981L1567.86 411.544L1569.63 409.905L1572.61 415.413L1575.48 411.468C1575.48 411.468 1579.96 411.739 1580.19 410.628C1580.41 409.501 1581.38 405.772 1581.38 405.772L1584.17 416.769L1586.59 419.058L1591.06 419.33L1598 414.593L1603.01 413.703L1606.75 416.591L1609.76 422.464L1613.95 419.119L1619.05 419.324L1620.86 422.045L1624.54 428.217L1625.87 427.766Z" fill="#121212"/>
</svg>
