<svg width="161" height="49" viewBox="0 0 161 49" fill="none" xmlns="http://www.w3.org/2000/svg">
<g clip-path="url(#clip0_2981_64)">
<path d="M24.0209 0C10.7541 0 0 10.7541 0 24.0209C0 37.2878 10.7541 48.0419 24.0209 48.0419C37.2878 48.0419 48.0419 37.2878 48.0419 24.0209C48.0419 10.7541 37.2907 0 24.0209 0ZM35.036 34.6459C34.6058 35.3516 33.6821 35.5753 32.9765 35.1422C27.337 31.6971 20.2374 30.9169 11.8757 32.8273C11.0696 33.0109 10.2664 32.506 10.0828 31.7C9.89925 30.8939 10.4012 30.0907 11.2102 29.9071C20.3607 27.816 28.209 28.7167 34.5427 32.5863C35.2483 33.0195 35.4721 33.9403 35.0389 34.6459H35.036ZM37.9763 28.1057C37.4341 28.9863 36.281 29.2646 35.4003 28.7224C28.9433 24.7524 19.1014 23.605 11.4626 25.9228C10.4729 26.2211 9.42594 25.6646 9.12475 24.675C8.82642 23.6853 9.38578 22.6412 10.3726 22.34C19.0957 19.6924 29.9416 20.9746 37.3567 25.5327C38.2373 26.0748 38.5156 27.2279 37.9734 28.1086L37.9763 28.1057ZM38.2287 21.293C30.4866 16.6948 17.7131 16.2731 10.3209 18.5163C9.13335 18.8748 7.87981 18.2065 7.51838 17.0189C7.15981 15.8313 7.82818 14.5778 9.01574 14.2164C17.5008 11.6404 31.6082 12.1367 40.5206 17.4291C41.5906 18.063 41.9406 19.4428 41.3066 20.507C40.6755 21.5741 39.2929 21.9269 38.2287 21.293ZM65.3534 22.1736C61.2055 21.184 60.4683 20.4898 60.4683 19.0326C60.4683 17.6557 61.7649 16.7263 63.6954 16.7263C65.6259 16.7263 67.4187 17.432 69.3636 18.8806C69.4209 18.9236 69.4955 18.9408 69.5672 18.9293C69.6418 18.9179 69.7049 18.8777 69.7479 18.8175L71.7731 15.9633C71.8563 15.8457 71.8334 15.6822 71.7215 15.5932C69.4066 13.7373 66.802 12.8337 63.7556 12.8337C59.2779 12.8337 56.1483 15.5215 56.1483 19.3653C56.1483 23.4874 58.8476 24.9503 63.5118 26.0748C67.479 26.9899 68.1502 27.7558 68.1502 29.124C68.1502 30.6415 66.7962 31.5852 64.6162 31.5852C62.1951 31.5852 60.2187 30.7677 58.01 28.8573C57.9555 28.8085 57.8809 28.7884 57.8121 28.7913C57.7375 28.797 57.6715 28.8314 57.6256 28.8859L55.3537 31.5881C55.2591 31.7028 55.2705 31.8692 55.3796 31.9667C57.9497 34.2615 61.1109 35.4721 64.5244 35.4721C69.3492 35.4721 72.4673 32.8359 72.4673 28.754C72.4759 25.3089 70.4134 23.4013 65.362 22.1736H65.3534ZM83.3849 18.0803C81.2937 18.0803 79.5784 18.9035 78.1613 20.5931V18.6941C78.1613 18.545 78.0408 18.4216 77.8917 18.4216H74.1769C74.0278 18.4216 73.9073 18.545 73.9073 18.6941V39.8064C73.9073 39.9556 74.0278 40.0789 74.1769 40.0789H77.8917C78.0408 40.0789 78.1613 39.9556 78.1613 39.8064V33.1428C79.5784 34.7291 81.2937 35.5065 83.3849 35.5065C87.2717 35.5065 91.2073 32.5146 91.2073 26.7948C91.213 21.075 87.2775 18.0803 83.3877 18.0803H83.3849ZM86.8873 26.7948C86.8873 29.7063 85.0945 31.7401 82.5243 31.7401C79.9541 31.7401 78.0695 29.6146 78.0695 26.7948C78.0695 23.9751 79.9857 21.8495 82.5243 21.8495C85.0515 21.8495 86.8873 23.9292 86.8873 26.7948ZM101.29 18.0831C96.2846 18.0831 92.3633 21.9384 92.3633 26.8579C92.3633 31.7774 96.2588 35.538 101.23 35.538C106.201 35.538 110.185 31.6971 110.185 26.7948C110.185 21.8925 106.278 18.0831 101.29 18.0831ZM101.29 31.7688C98.6282 31.7688 96.6202 29.6289 96.6202 26.7948C96.6202 23.9607 98.5593 21.881 101.23 21.881C103.9 21.881 105.929 24.0209 105.929 26.8579C105.929 29.6949 103.978 31.7717 101.29 31.7717V31.7688ZM120.873 18.4216H116.786V14.2422C116.786 14.093 116.665 13.9697 116.516 13.9697H112.801C112.652 13.9697 112.529 14.093 112.529 14.2422V18.4216H110.745C110.596 18.4216 110.475 18.545 110.475 18.6941V21.8868C110.475 22.0359 110.596 22.1593 110.745 22.1593H112.529V30.4177C112.529 33.7538 114.19 35.4462 117.469 35.4462C118.8 35.4462 119.904 35.1709 120.945 34.58C121.031 34.5341 121.083 34.4423 121.083 34.3447V31.3041C121.083 31.2123 121.034 31.1234 120.954 31.0746C120.873 31.023 120.773 31.0201 120.69 31.0632C119.976 31.4217 119.284 31.5881 118.51 31.5881C117.319 31.5881 116.786 31.0459 116.786 29.8354V22.1593H120.873C121.023 22.1593 121.143 22.0359 121.143 21.8868V18.6941C121.149 18.545 121.028 18.4216 120.876 18.4216H120.873ZM135.113 18.4359V17.9225C135.113 16.4136 135.692 15.7395 136.989 15.7395C137.763 15.7395 138.386 15.8944 139.083 16.1268C139.169 16.1526 139.258 16.1411 139.327 16.0895C139.398 16.0379 139.439 15.9547 139.439 15.8686V12.7391C139.439 12.6186 139.364 12.5125 139.246 12.478C138.512 12.26 137.571 12.0334 136.16 12.0334C132.732 12.0334 130.916 13.9639 130.916 17.6184V18.4044H129.132C128.983 18.4044 128.859 18.5277 128.859 18.6769V21.8839C128.859 22.0331 128.983 22.1564 129.132 22.1564H130.916V34.8955C130.916 35.0475 131.04 35.168 131.189 35.168H134.901C135.053 35.168 135.173 35.0475 135.173 34.8955V22.1593H138.641L143.954 34.8955C143.351 36.2322 142.757 36.499 141.948 36.499C141.294 36.499 140.603 36.3039 139.9 35.9167C139.834 35.8823 139.754 35.8765 139.685 35.8966C139.614 35.9224 139.553 35.974 139.525 36.0429L138.265 38.8053C138.205 38.9372 138.257 39.0893 138.383 39.1581C139.697 39.8695 140.881 40.1736 142.347 40.1736C145.089 40.1736 146.607 38.8942 147.941 35.4577L154.383 18.8089C154.418 18.7257 154.406 18.631 154.355 18.5564C154.306 18.4818 154.223 18.4388 154.134 18.4388H150.267C150.15 18.4388 150.046 18.5134 150.009 18.6224L146.048 29.933L141.71 18.6138C141.67 18.5077 141.57 18.4388 141.458 18.4388H135.113V18.4359ZM126.857 18.4187H123.142C122.993 18.4187 122.87 18.5421 122.87 18.6912V34.8926C122.87 35.0447 122.993 35.1651 123.142 35.1651H126.857C127.006 35.1651 127.13 35.0447 127.13 34.8926V18.6912C127.13 18.5421 127.009 18.4187 126.857 18.4187ZM125.021 11.0409C123.55 11.0409 122.357 12.2313 122.357 13.7029C122.357 15.1744 123.55 16.3677 125.021 16.3677C126.493 16.3677 127.683 15.1744 127.683 13.7029C127.683 12.2313 126.49 11.0409 125.021 11.0409ZM157.556 23.628C156.087 23.628 154.943 22.4461 154.943 21.0147C154.943 19.5834 156.102 18.3872 157.57 18.3872C159.039 18.3872 160.184 19.5661 160.184 21.0004C160.184 22.4347 159.025 23.628 157.556 23.628ZM157.57 18.6453C156.231 18.6453 155.218 19.7096 155.218 21.0119C155.218 22.3142 156.225 23.3641 157.556 23.3641C158.887 23.3641 159.908 22.2998 159.908 20.9975C159.908 19.6952 158.901 18.6453 157.57 18.6453ZM158.15 21.2672L158.89 22.3027H158.265L157.599 21.3532H157.028V22.3027H156.506V19.5604H157.728C158.368 19.5604 158.787 19.8874 158.787 20.4353C158.787 20.8857 158.529 21.161 158.153 21.2672H158.15ZM157.708 20.0308H157.028V20.8971H157.708C158.047 20.8971 158.25 20.7308 158.25 20.464C158.25 20.1829 158.047 20.0308 157.708 20.0308Z" fill="#121212"/>
</g>
<defs>
<clipPath id="clip0_2981_64">
<rect width="160.186" height="48.0419" fill="white"/>
</clipPath>
</defs>
</svg>
