<svg width="248" height="192" viewBox="0 0 248 192" fill="none" xmlns="http://www.w3.org/2000/svg">
<g filter="url(#filter0_d_1_468)">
<path fill-rule="evenodd" clip-rule="evenodd" d="M139.078 42.1373L137.347 49.3997L139.521 82.2609L147.689 81.7327L147.973 86.1146L152.355 85.8312L156.455 81.1659L164.124 80.6699L177.447 65.5076L175.782 39.7638L139.078 42.1373ZM173.47 63.5646L167.834 69.9794L157.973 70.6171L152.849 76.4488L152.495 70.9714L144.277 71.5028L142.613 45.759L172.195 43.8459L173.47 63.5646ZM162.795 51.6042L166.63 51.3563L167.338 62.3111L163.503 62.5591L162.795 51.6042ZM152.934 52.2419L156.769 51.9939L157.477 62.9487L153.642 63.1967L152.934 52.2419ZM202.793 100.171L204.458 125.914L190.852 136.695L182.087 137.262L181.804 132.88L175.513 137.687L167.843 138.183L167.56 133.801L162.913 138.501L148.67 139.423L144.004 135.324L143.191 139.777L130.616 140.557L125.377 136.529L125.113 140.946L110.862 141.834L110.038 137.52L106.485 142.118L84.5737 143.567L80.0494 141.66L80.1911 143.851L68.1389 144.63L54.4597 137.264L45.711 129.58L43.3733 93.4288L60.3559 92.3306L69.1046 100.015L106.357 97.6063L105.826 89.3902L136.504 87.4063L137.035 95.6224L144.705 95.1264L144.988 99.5084L149.087 94.843L158.4 94.2408L166.087 85.4933L183.617 84.3596L184.148 92.5757L193.461 91.9735L202.793 100.171ZM65.5178 104.097L57.8482 104.593L57.3169 96.3773L47.456 97.015L49.4396 127.688L55.8907 133.872L67.3951 133.128L66.7221 122.721L59.0525 123.217L58.4858 114.453L66.1553 113.957L65.5178 104.097ZM106.605 101.44L96.7439 102.078L97.9482 120.701L94.1134 120.949L92.9091 102.326L83.5961 102.928L84.8004 121.552L80.9656 121.8L79.7613 103.176L69.3526 103.849L71.2299 132.88L101.908 130.896L108.057 123.898L106.605 101.44ZM119.753 100.59L110.44 101.192L112.317 130.223L121.63 129.62L119.753 100.59ZM119.221 92.3741L109.908 92.9764L110.192 97.3583L119.505 96.7561L119.221 92.3741ZM141.118 99.2086L133.448 99.7046L132.917 91.4885L123.056 92.1262L125.04 122.8L131.491 128.983L142.995 128.239L142.322 117.832L134.653 118.328L134.086 109.564L141.756 109.068L141.118 99.2086ZM166.318 97.579L150.979 98.5709L145.342 104.986L146.405 121.418L153.404 127.566L168.195 126.609L167.522 116.202L156.566 116.911L155.999 108.147L166.956 107.438L166.318 97.579ZM199.029 101.514L192.066 95.914L180.561 96.6579L180.03 88.4418L169.621 89.1149L172.03 126.361L182.439 125.688L181.199 106.517L188.869 106.021L190.108 125.192L200.517 124.519L199.029 101.514Z" fill="#874BF7"/>
</g>
<defs>
<filter id="filter0_d_1_468" x="0.37326" y="0.763794" width="247.085" height="190.866" filterUnits="userSpaceOnUse" color-interpolation-filters="sRGB">
<feFlood flood-opacity="0" result="BackgroundImageFix"/>
<feColorMatrix in="SourceAlpha" type="matrix" values="0 0 0 0 0 0 0 0 0 0 0 0 0 0 0 0 0 0 127 0" result="hardAlpha"/>
<feOffset dy="4"/>
<feGaussianBlur stdDeviation="21.5"/>
<feComposite in2="hardAlpha" operator="out"/>
<feColorMatrix type="matrix" values="0 0 0 0 0.529412 0 0 0 0 0.294118 0 0 0 0 0.968627 0 0 0 0.4 0"/>
<feBlend mode="normal" in2="BackgroundImageFix" result="effect1_dropShadow_1_468"/>
<feBlend mode="normal" in="SourceGraphic" in2="effect1_dropShadow_1_468" result="shape"/>
</filter>
</defs>
</svg>
