<svg width="163" height="37" viewBox="0 0 163 37" fill="none" xmlns="http://www.w3.org/2000/svg">
<g clip-path="url(#clip0_1_540)">
<path d="M34.4675 0.372559C34.6795 0.676763 35.0021 0.515442 35.2648 0.524661C38.3023 0.662935 41.3443 0.768945 44.3679 1.1469C48.4516 1.6539 50.5211 3.60818 51.1295 7.67806C51.9269 12.9878 51.9546 18.3252 51.6734 23.6718C51.5628 25.7874 51.3877 27.8892 50.9959 29.9771C50.3598 33.3741 48.2396 35.3791 44.8012 35.7847C39.1411 36.4576 33.4488 36.5083 27.7658 36.5728C21.9444 36.6374 16.123 36.4806 10.3109 36.0981C8.99269 36.0105 7.67447 35.8722 6.37469 35.6326C3.54467 35.1117 1.58117 33.2266 0.968157 30.4104C0.479587 28.1796 0.350531 25.9073 0.170774 23.6395C0.152338 23.3999 0.304439 23.1049 0.00484467 22.9251V14.0341C0.304439 13.8543 0.152338 13.5593 0.170774 13.3197C0.332094 11.3193 0.470369 9.31431 0.806837 7.33238C1.43368 3.62201 3.54006 1.62625 7.26887 1.1469C10.2372 0.768945 13.2193 0.676763 16.2014 0.52927C16.4641 0.515442 16.7868 0.681372 16.9942 0.372559H34.4675V0.372559ZM20.829 10.7662V26.193C25.3275 23.6073 29.7385 21.0723 34.2508 18.4773C29.7154 15.8685 25.3137 13.3427 20.829 10.7662Z" fill="#121212"/>
<path d="M162.648 28.8016C162.339 29.0367 162.5 29.387 162.445 29.6774C161.979 32.1018 160.537 33.5399 158.14 34.0653C156.614 34.4018 155.089 34.4018 153.586 33.9915C151.277 33.3647 150.185 31.6271 149.65 29.4515C149.456 28.6588 149.272 27.8429 149.254 27.0363C149.148 23.2614 148.797 19.4681 149.641 15.7347C150.383 12.453 152.231 10.9781 155.619 10.826C156.361 10.7937 157.108 10.7845 157.836 10.9181C160.463 11.4021 161.818 12.8309 162.33 15.5549C162.422 16.0527 162.353 16.5874 162.648 17.0437V24.3492C159.924 24.3308 157.204 24.3123 154.48 24.2939C154.236 24.2939 154.079 24.3492 154.084 24.6442C154.116 26.2804 154.024 27.9305 154.388 29.5437C154.591 30.4379 155.153 30.8481 156.024 30.8619C156.9 30.8758 157.458 30.484 157.739 29.6267C157.951 28.9676 158.057 28.29 158.043 27.5987C158.034 27.1838 158.108 26.9764 158.61 27.0179C159.767 27.1193 160.933 27.1746 162.095 27.2023C162.39 27.2069 162.473 27.4097 162.648 27.5295V28.8016V28.8016ZM154.089 18.7537C154.089 19.3805 154.098 20.1226 154.089 20.8601C154.084 21.1643 154.116 21.3533 154.503 21.344C155.481 21.321 156.458 21.3348 157.435 21.3394C157.661 21.3394 157.859 21.3302 157.85 21.0168C157.813 19.2238 157.923 17.4217 157.555 15.6517C157.361 14.7345 156.757 14.3289 155.835 14.352C155.056 14.3704 154.623 14.753 154.388 15.6563C154.135 16.6381 154.181 17.6475 154.093 18.7583L154.089 18.7537Z" fill="#121212"/>
<path d="M137.445 13.7021C138.371 12.2502 139.445 11.3284 140.939 10.9643C143.216 10.4112 145.133 11.3975 145.977 13.5638C146.484 14.8636 146.649 16.2325 146.714 17.5968C146.88 21.215 147.032 24.8424 146.594 28.456C146.465 29.5069 146.23 30.5347 145.815 31.5119C145.17 33.0513 144.133 34.1667 142.4 34.3327C140.496 34.517 138.855 33.9317 137.648 32.3692C137.537 32.2263 137.44 32.0742 137.293 31.8622C137.215 32.0604 137.15 32.194 137.113 32.3323C136.821 33.4569 136.108 34.0192 134.974 34.0192C134.366 34.0192 133.753 33.9778 133.149 34.0285C132.578 34.0792 132.453 33.8671 132.458 33.3233C132.481 28.479 132.472 23.6394 132.472 18.7952C132.472 13.3979 132.49 8.00059 132.449 2.60327C132.444 1.86581 132.665 1.73214 133.329 1.7644C134.412 1.81971 135.505 1.83815 136.583 1.7598C137.357 1.70449 137.463 2.00869 137.459 2.68163C137.427 6.27676 137.445 9.8719 137.445 13.6975V13.7021ZM141.676 22.9158C141.676 21.6483 141.704 20.3762 141.667 19.1132C141.635 17.9287 141.579 16.7303 141.178 15.5965C140.796 14.5179 139.791 14.163 138.819 14.7806C137.998 15.3015 137.505 16.0436 137.51 17.0714C137.519 20.98 137.51 24.8931 137.51 28.8017C137.51 29.765 138.007 30.378 138.938 30.5716C139.948 30.7836 140.658 30.4333 141.04 29.4977C141.188 29.1381 141.294 28.751 141.358 28.3638C141.658 26.557 141.649 24.7364 141.662 22.9112L141.676 22.9158Z" fill="#121212"/>
<path d="M98.6773 31.1618C97.7646 32.8072 96.6631 33.8766 95.0084 34.2822C92.0723 35.0012 89.8323 33.4848 89.4267 30.498C89.3161 29.6822 89.2654 28.871 89.2654 28.046C89.27 22.727 89.2792 17.4081 89.2561 12.0937C89.2561 11.4945 89.3714 11.2779 90.0213 11.3055C91.2611 11.3655 92.5102 11.3516 93.7501 11.3055C94.3216 11.2825 94.4414 11.4761 94.4414 12.0154C94.423 17.173 94.4276 22.3352 94.4322 27.4929C94.4322 28.2857 94.4138 29.0784 94.6535 29.8528C94.8424 30.4658 95.2388 30.7562 95.8841 30.7516C97.1101 30.7469 98.0135 29.8574 98.0135 28.6267C98.0135 23.0958 98.0228 17.5694 97.9997 12.0384C97.9997 11.4346 98.1518 11.2825 98.7418 11.3055C100.037 11.3516 101.337 11.3378 102.632 11.3055C103.093 11.2963 103.203 11.453 103.203 11.8909C103.19 19.0858 103.194 26.2853 103.203 33.4802C103.203 33.8627 103.148 34.0609 102.692 34.0471C101.659 34.0148 100.627 34.0148 99.5991 34.0471C99.2073 34.0609 99.1151 33.9088 99.069 33.5631C98.9769 32.8395 98.8432 32.1205 98.6865 31.1572L98.6773 31.1618Z" fill="#121212"/>
<path d="M124.931 31.1662C124.101 32.6688 123.124 33.7151 121.654 34.176C118.464 35.1808 115.971 33.5077 115.634 30.1845C115.482 28.7049 115.51 27.2254 115.51 25.7458C115.505 21.192 115.519 16.6428 115.492 12.0889C115.492 11.4575 115.653 11.2869 116.275 11.31C117.515 11.3607 118.764 11.3561 120.004 11.31C120.562 11.2915 120.704 11.4529 120.704 12.0106C120.681 17.2235 120.691 22.4365 120.695 27.654C120.695 28.3408 120.668 29.0276 120.861 29.7005C121.105 30.5347 121.502 30.8205 122.373 30.7375C123.488 30.6315 124.258 29.8065 124.258 28.7049C124.258 23.1739 124.267 17.643 124.244 12.112C124.244 11.5174 124.346 11.2777 125.009 11.31C126.277 11.3699 127.549 11.3469 128.821 11.3192C129.287 11.31 129.453 11.4068 129.453 11.9184C129.434 19.0902 129.434 26.2621 129.453 33.4385C129.453 33.9179 129.351 34.0838 128.844 34.0607C127.867 34.0193 126.885 34.0377 125.908 34.0561C125.535 34.0654 125.346 33.9962 125.309 33.5537C125.249 32.8301 125.088 32.1111 124.936 31.1708L124.931 31.1662Z" fill="#121212"/>
<path d="M86.6705 23.2386C86.629 24.8103 86.6797 26.8982 86.2649 28.9631C85.5044 32.7657 83.4579 34.4526 79.5862 34.4158C78.7658 34.4066 77.95 34.3328 77.148 34.1438C74.6452 33.5539 73.4422 31.807 72.9168 29.4425C72.6909 28.4331 72.5619 27.4099 72.5296 26.382C72.4282 23.0266 72.23 19.6711 72.8845 16.3387C73.7418 11.9784 76.5995 10.5542 80.7201 10.9414C83.928 11.241 85.744 12.8957 86.4031 17.2605C86.6751 19.0719 86.6797 20.8971 86.6751 23.2386H86.6705ZM77.6918 22.621C77.6918 24.0728 77.6596 25.5293 77.7011 26.9812C77.7287 27.9537 77.7794 28.9355 78.1574 29.8573C78.4109 30.475 78.8672 30.8345 79.5447 30.8621C80.2361 30.8898 80.6924 30.5118 80.9643 29.9172C81.1948 29.4102 81.3008 28.8664 81.3423 28.3087C81.605 24.9025 81.4621 21.4917 81.4391 18.0856C81.4345 17.1683 81.3515 16.2373 80.9782 15.3662C80.7154 14.7485 80.2453 14.3982 79.5678 14.4028C78.8902 14.4028 78.4201 14.7531 78.1666 15.38C77.9684 15.8732 77.8716 16.3894 77.8071 16.9148C77.572 18.8138 77.7241 20.7174 77.6872 22.6163L77.6918 22.621Z" fill="#121212"/>
<path d="M57.029 2.91674C58.6284 2.91674 60.1863 2.93057 61.7442 2.90752C62.1913 2.90291 62.182 3.22094 62.2327 3.47905C63.2375 8.3878 64.4267 13.2551 65.2794 18.1961C65.2886 18.2468 65.3163 18.2929 65.3531 18.3758C65.8647 15.9145 66.3533 13.4809 66.8834 11.0565C67.4365 8.50764 68.0357 5.968 68.5888 3.41914C68.6579 3.09189 68.7132 2.90291 69.1142 2.91213C70.6444 2.93518 72.1793 2.92135 73.8017 2.92135C73.2993 4.7097 72.82 6.43352 72.336 8.15273C70.9072 13.2505 69.4783 18.3482 68.0449 23.4459C67.9435 23.81 67.9296 24.1741 67.9296 24.5429C67.9296 27.4282 67.9112 30.3089 67.9435 33.1942C67.9527 33.8303 67.8236 34.0792 67.1277 34.0423C65.9661 33.9824 64.8 33.9916 63.6385 34.0423C63.0301 34.0654 62.8227 33.9179 62.8411 33.2726C62.8918 31.581 62.7766 29.8803 62.878 28.1933C63.0439 25.3817 62.5323 22.7084 61.7488 20.0213C60.1356 14.4857 58.6514 8.90863 57.1166 3.35C57.0843 3.22555 57.0659 3.1011 57.029 2.92135V2.91674Z" fill="#121212"/>
<path d="M111.993 20.5558C111.993 24.7916 111.979 29.0274 112.007 33.2586C112.007 33.8946 111.832 34.0606 111.219 34.0329C110.085 33.9822 108.942 33.9776 107.803 34.0329C107.144 34.0652 106.969 33.867 106.969 33.2079C106.992 26.1144 106.983 19.0209 106.983 11.9274C106.983 10.5262 106.965 9.12045 106.992 7.71927C107.001 7.22148 106.891 7.02329 106.338 7.04633C105.07 7.09243 103.798 7.04633 102.526 7.06938C102.07 7.0786 101.867 7.00024 101.89 6.4748C101.936 5.49766 101.927 4.51591 101.89 3.53877C101.876 3.07325 101.977 2.90271 102.489 2.90732C107.149 2.93036 111.804 2.93036 116.464 2.90732C116.966 2.90732 117.091 3.04559 117.072 3.52494C117.036 4.52974 117.04 5.53453 117.072 6.54394C117.086 6.96798 116.948 7.0786 116.538 7.06938C115.321 7.04633 114.1 7.09704 112.887 7.04633C112.196 7.01407 111.956 7.17078 111.966 7.93129C112.007 12.1394 111.984 16.3476 111.984 20.5558H111.993Z" fill="#121212"/>
<path d="M20.8287 10.7661C25.3134 13.3426 29.7151 15.8731 34.2505 18.4772C29.7382 21.0722 25.3272 23.6072 20.8287 26.1929V10.7661Z" fill="#FDFDFC"/>
</g>
<defs>
<clipPath id="clip0_1_540">
<rect width="162.648" height="36.2141" fill="white" transform="translate(0 0.372559)"/>
</clipPath>
</defs>
</svg>
